<svg version="1.1" id="Layer_1" xmlns="http://www.w3.org/2000/svg" xmlns:xlink="http://www.w3.org/1999/xlink" x="0px" y="0px"
	 width="100%" viewBox="0 0 1585 731" enable-background="new 0 0 1585 731" xml:space="preserve">
<path fill="#FFFFFF" opacity="1.000000" stroke="none" 
	d="
M1586.000000,358.000000 
	C1586.000000,482.603088 1586.000000,607.206177 1586.000000,732.000000 
	C1436.639893,732.000000 1287.279663,732.000000 1137.653564,731.608398 
	C1144.044434,731.141846 1150.730469,731.437744 1157.351685,730.914429 
	C1170.911255,729.842712 1184.442505,728.393311 1197.972900,726.978394 
	C1206.756104,726.059875 1215.587891,725.328918 1224.271240,723.796326 
	C1237.048340,721.541199 1249.719727,718.680237 1262.423340,716.016052 
	C1288.674561,710.510559 1314.096802,702.365967 1338.322021,690.865784 
	C1361.586792,679.821716 1383.291260,666.432373 1400.169800,646.376587 
	C1407.858643,637.240417 1414.407349,627.479248 1418.972900,616.376221 
	C1426.630859,597.752686 1427.825317,578.349365 1424.759521,558.865112 
	C1421.687012,539.336914 1414.011230,521.195679 1404.344482,503.975128 
	C1403.576294,502.606689 1401.503418,501.139465 1400.024414,501.126312 
	C1379.216064,500.941132 1358.405640,501.000488 1337.391846,501.000488 
	C1337.610718,501.631561 1337.714722,502.078491 1337.914795,502.477203 
	C1338.275391,503.195648 1338.683105,503.891296 1339.089355,504.585815 
	C1351.324097,525.501709 1360.822021,547.131653 1360.129395,572.219727 
	C1359.621948,590.605652 1352.441528,605.958130 1340.862183,619.501465 
	C1330.749268,631.329773 1317.953857,639.917236 1304.330566,647.226440 
	C1285.945068,657.090576 1266.370239,664.065918 1246.164429,668.819092 
	C1228.322510,673.016296 1210.174561,676.008423 1192.066772,678.947144 
	C1178.685181,681.118896 1165.177368,682.625854 1151.676636,683.914490 
	C1140.359985,684.994751 1128.973511,685.854919 1117.615601,685.883728 
	C1096.025391,685.938477 1074.424316,685.607910 1052.844971,684.907959 
	C1035.385742,684.341614 1017.947815,683.060181 1000.508057,681.973450 
	C992.146118,681.452393 983.759888,680.973022 975.458435,679.902222 
	C959.291748,677.816895 943.160522,675.437134 927.045227,672.978210 
	C908.062561,670.081665 889.050293,667.312317 870.165466,663.860474 
	C850.695618,660.301514 831.295593,656.290344 811.986938,651.936279 
	C780.690796,644.879211 749.284912,638.163269 718.307739,629.874146 
	C677.869507,619.053345 637.661926,607.303772 597.629883,595.055603 
	C572.423828,587.343567 547.475952,578.628601 522.848816,569.220703 
	C484.480194,554.563232 446.302582,539.366516 408.388855,523.570618 
	C381.637268,512.425232 355.396210,500.041016 329.047699,487.947388 
	C316.051086,481.982056 303.334717,475.407104 290.467773,469.156860 
	C289.235901,468.558411 287.834747,468.308563 286.512146,467.896912 
	C304.518158,479.890442 322.791626,491.237061 341.395660,502.012939 
	C365.121460,515.755554 388.805664,529.625671 413.077576,542.354309 
	C438.264130,555.562683 463.972412,567.813538 489.750275,579.845215 
	C510.719879,589.632629 531.898865,599.057617 553.398621,607.602356 
	C584.358948,619.907166 615.507507,631.798584 646.927185,642.869019 
	C673.453552,652.215393 700.416626,660.348755 727.310364,668.615662 
	C742.143250,673.175049 757.176147,677.120117 772.217834,680.954102 
	C792.158142,686.036743 812.157410,690.903198 832.203308,695.552063 
	C846.898315,698.960022 861.669434,702.073486 876.478882,704.945618 
	C893.393188,708.225952 910.376953,711.154053 927.350525,714.120972 
	C940.967407,716.501099 954.579285,718.951782 968.257385,720.928345 
	C982.002258,722.914551 995.815674,724.446899 1009.618652,726.004517 
	C1022.475708,727.455261 1035.336914,728.979492 1048.236816,729.907471 
	C1059.130371,730.691162 1070.083130,730.643005 1081.006836,731.039612 
	C1082.014771,731.076233 1083.002808,731.666687 1084.000000,732.000000 
	C723.091797,732.000000 362.183594,732.000000 1.000000,732.000000 
	C1.000000,543.639893 1.000000,355.279633 1.375461,166.647888 
	C2.857538,182.542084 7.968996,197.582336 14.625252,212.188416 
	C27.167915,239.711288 46.257145,262.508820 66.785767,284.242096 
	C69.007530,286.594208 71.849785,288.360260 75.389023,291.183838 
	C74.845573,289.229309 74.840805,288.511017 74.491852,288.057587 
	C56.817707,265.094360 41.391018,240.810379 30.943270,213.631180 
	C22.830931,192.527405 17.886072,171.015366 21.938568,148.157791 
	C26.291157,123.607567 39.731682,104.992439 58.960575,90.028870 
	C70.745201,80.858284 83.827675,73.897118 97.551361,68.137314 
	C117.093170,59.935665 137.285919,53.711277 158.151352,50.096478 
	C176.481766,46.920853 194.920380,44.228867 213.400864,42.102348 
	C230.056519,40.185818 246.816895,38.562428 263.561615,38.192589 
	C284.638947,37.727055 305.747345,38.667221 326.842316,39.000706 
	C327.342102,39.008610 327.844238,38.985321 328.341309,39.025795 
	C344.564545,40.346779 360.787567,41.670757 377.010071,43.001221 
	C385.205048,43.673317 393.425629,44.131927 401.587128,45.091194 
	C413.924652,46.541298 426.221375,48.339390 438.534149,49.999130 
	C451.004089,51.680058 463.530304,53.032578 475.927673,55.141705 
	C493.419403,58.117535 510.854736,61.463223 528.242493,65.002853 
	C551.823059,69.803154 575.400208,74.654495 598.856934,80.017059 
	C617.371826,84.249840 635.806274,88.918388 654.092163,94.049973 
	C685.030151,102.732117 715.965576,111.475075 746.633423,121.052505 
	C773.902405,129.568466 801.011292,138.696289 827.817932,148.566849 
	C857.681946,159.563156 887.293457,171.295731 916.699829,183.468887 
	C942.389771,194.103638 967.664001,205.746353 993.072388,217.054932 
	C999.149780,219.759811 1004.720337,221.889175 1012.047363,221.360565 
	C1031.397583,219.964539 1050.875366,220.349213 1070.301758,219.995361 
	C1087.729248,219.677917 1105.156006,219.324631 1122.582275,218.954666 
	C1122.919800,218.947495 1123.248535,218.538971 1123.812378,218.164078 
	C1117.383179,214.680267 1111.306152,211.198792 1105.064453,208.043381 
	C1090.956421,200.911301 1076.822754,193.825378 1062.597046,186.932083 
	C1043.963867,177.903061 1025.426025,168.638855 1006.495483,160.271133 
	C980.185791,148.641541 953.633240,137.547333 927.034485,126.588501 
	C884.061462,108.883308 840.369690,93.099716 795.911377,79.556091 
	C765.171936,70.191711 734.258484,61.377625 703.296448,52.772388 
	C685.141479,47.726616 666.806458,43.274509 648.428711,39.099941 
	C629.565002,34.814995 610.582642,31.029152 591.591675,27.335928 
	C577.676697,24.629843 563.683655,22.304897 549.688660,20.036619 
	C538.079590,18.155035 526.420410,16.579782 514.777039,14.913488 
	C503.132507,13.247029 491.502899,11.443579 479.824341,10.057117 
	C469.068024,8.780140 458.260620,7.916510 447.466248,6.980234 
	C431.582245,5.602497 415.702240,4.137218 399.796478,3.066406 
	C389.557251,2.377077 379.274292,2.345755 369.013489,1.952474 
	C368.331146,1.926321 367.670654,1.330740 367.000000,1.000006 
	C773.222717,1.000000 1179.445435,1.000000 1586.000000,1.000000 
	C1586.000000,108.026634 1586.000000,215.053619 1585.537720,322.540283 
	C1568.258301,322.406738 1553.824707,327.684570 1541.888184,340.745667 
	C1541.888184,334.983887 1541.888184,329.617126 1541.888184,324.330505 
	C1529.665405,324.330505 1517.940186,324.330505 1506.341553,324.330505 
	C1506.341553,367.707886 1506.341553,410.753235 1506.341553,453.629883 
	C1519.078735,453.629883 1531.471191,453.629883 1544.000000,453.629883 
	C1544.000000,448.769318 1543.937744,444.277222 1544.010864,439.787292 
	C1544.318726,420.874969 1544.422729,401.954651 1545.094971,383.054810 
	C1545.473877,372.404510 1555.289307,361.024963 1565.771973,359.161285 
	C1572.374756,357.987427 1579.248047,358.334961 1586.000000,358.000000 
M1181.023071,296.614624 
	C1180.765869,293.124420 1180.508545,289.634216 1180.285767,286.611847 
	C1185.851074,284.646790 1190.887085,281.910858 1196.194214,281.200500 
	C1206.255127,279.853851 1216.473999,279.705566 1226.620605,278.967773 
	C1228.532471,278.828766 1230.721680,278.760315 1232.255615,277.809143 
	C1239.214722,273.493774 1242.752441,266.455780 1244.744873,259.016937 
	C1245.710449,255.412338 1247.007812,254.830399 1249.987427,254.985992 
	C1258.057739,255.407379 1266.097778,255.124130 1273.670288,251.996536 
	C1276.828003,250.692352 1279.647339,248.568817 1282.611816,246.822937 
	C1278.147095,239.484940 1271.195801,242.260315 1265.896729,240.272156 
	C1257.231812,237.021103 1249.891113,245.901199 1240.905518,244.706070 
	C1237.640381,244.271790 1234.160156,245.846176 1230.763184,245.934631 
	C1222.895630,246.139526 1215.019165,246.011917 1207.146240,245.980499 
	C1205.830811,245.975235 1204.453247,245.992752 1203.210815,245.632614 
	C1189.328613,241.608612 1175.467285,237.512527 1160.643066,233.154465 
	C1161.215942,234.286072 1161.077759,234.140076 1161.077148,233.993576 
	C1161.044434,224.995468 1161.169556,215.992905 1160.898071,207.002289 
	C1160.829468,204.729996 1160.057861,202.036270 1158.651123,200.322739 
	C1152.153931,192.407974 1139.900635,194.858124 1137.225952,205.070740 
	C1134.782959,214.398926 1133.977051,224.155853 1132.531494,233.211258 
	C1122.464478,234.815186 1112.574951,236.487869 1102.653687,237.944275 
	C1092.703613,239.404892 1082.719360,240.632965 1072.754395,241.993408 
	C1060.406616,243.679138 1048.329102,243.733841 1036.612183,238.261810 
	C1033.605225,236.857452 1029.515259,236.770325 1026.151611,237.367371 
	C1021.179321,238.249924 1016.373108,240.181900 1011.605835,241.960831 
	C1011.006592,242.184448 1010.494446,244.896439 1010.926025,245.248138 
	C1013.138245,247.051315 1015.523254,249.418442 1018.122986,249.823761 
	C1025.671021,251.000488 1033.340454,251.567596 1040.982666,251.890427 
	C1044.234253,252.027802 1046.029541,253.075745 1047.526733,255.914276 
	C1050.166748,260.919220 1052.938843,265.911774 1056.225830,270.501038 
	C1059.130005,274.555756 1062.765625,277.865875 1068.630859,277.067505 
	C1073.505371,276.404022 1078.701294,275.233002 1083.328125,276.242737 
	C1091.768311,278.084808 1099.923096,281.289215 1108.096924,284.205475 
	C1108.843506,284.471832 1109.235962,286.780701 1109.170410,288.110413 
	C1108.523071,301.241882 1107.724121,314.365906 1107.051392,327.496246 
	C1107.010864,328.287720 1107.567627,329.743347 1108.032471,329.824463 
	C1111.089600,330.358002 1109.954956,332.220276 1109.598755,333.941193 
	C1109.455688,334.632843 1109.269653,335.720978 1109.630371,336.048981 
	C1113.376221,339.454437 1111.840820,343.334290 1111.270874,347.433960 
	C1110.738647,351.262421 1110.314575,355.784973 1111.830200,359.090912 
	C1116.247070,368.725006 1112.806763,378.617432 1113.667114,388.324097 
	C1114.497803,397.695923 1112.486206,407.295715 1112.045898,416.810272 
	C1111.518677,428.205261 1111.276855,439.614960 1111.041748,451.020935 
	C1110.987183,453.668213 1110.202759,454.796387 1107.358398,455.078461 
	C1099.572021,455.850647 1091.758667,456.668213 1084.086426,458.145447 
	C1080.040039,458.924591 1074.736816,459.235260 1074.075317,465.017029 
	C1073.633545,468.878632 1073.991455,472.831726 1073.991455,476.750549 
	C1120.016113,476.750549 1165.450439,476.750549 1210.684814,476.750549 
	C1210.444458,473.104950 1210.404785,469.678680 1209.894043,466.324097 
	C1209.720825,465.186371 1208.527100,463.549500 1207.511963,463.296783 
	C1198.482544,461.048920 1189.345459,459.223541 1180.351562,456.851196 
	C1178.649048,456.402130 1177.027466,454.296234 1176.136597,452.560608 
	C1175.459473,451.241241 1176.035767,449.295685 1175.994751,447.630219 
	C1175.671875,434.548859 1175.233398,421.468597 1175.137085,408.385773 
	C1175.125854,406.855621 1176.975342,405.311768 1177.962280,403.774261 
	C1178.484863,403.937592 1179.007446,404.100891 1179.529907,404.264191 
	C1176.624878,387.389160 1181.840698,370.918457 1181.172852,354.072021 
	C1180.427368,335.271179 1181.015381,316.417419 1181.023071,296.614624 
M259.000000,414.496582 
	C259.000000,419.590179 259.000000,424.683777 259.000000,429.641907 
	C272.381927,429.641907 285.110138,429.641907 297.620178,429.641907 
	C297.620178,373.563690 297.620178,317.844116 297.620178,262.235657 
	C284.630035,262.235657 272.020935,262.235657 258.941833,262.235657 
	C258.941833,284.194458 258.941833,305.923584 258.941833,327.704620 
	C233.409393,327.704620 208.351776,327.704620 182.822296,327.704620 
	C182.822296,305.684357 182.822296,283.955231 182.822296,262.358276 
	C169.617661,262.358276 156.889450,262.358276 144.380005,262.358276 
	C144.380005,318.436707 144.380005,374.156281 144.380005,429.764160 
	C157.370361,429.764160 169.979462,429.764160 183.058594,429.764160 
	C183.058594,407.138580 183.058594,384.743103 183.058594,362.296234 
	C208.591064,362.296234 233.648682,362.296234 259.000000,362.296234 
	C259.000000,379.559418 259.000000,396.528778 259.000000,414.496582 
M1067.950195,386.151520 
	C1070.301025,374.454132 1070.996094,362.718414 1069.018066,350.877747 
	C1066.126831,333.570129 1057.561890,319.573456 1043.149902,309.863068 
	C1024.322388,297.177643 1003.647583,295.179810 982.472290,303.100586 
	C976.184631,305.452515 970.765442,310.126068 964.846924,313.798737 
	C964.846924,309.669312 964.846924,304.948364 964.846924,300.348419 
	C952.637878,300.348419 940.907837,300.348419 929.382812,300.348419 
	C929.382812,359.426544 929.382812,418.154938 929.382812,476.759460 
	C942.044983,476.759460 954.323364,476.759460 967.108276,476.759460 
	C967.108276,457.188690 967.108276,437.852173 967.108276,418.049896 
	C986.376648,436.004242 1016.867554,435.317688 1036.296509,425.252106 
	C1052.208740,417.008514 1062.216309,403.817657 1067.950195,386.151520 
M1373.052612,350.317322 
	C1371.387573,346.628601 1369.686401,342.955688 1368.063477,339.248505 
	C1360.671875,322.364532 1353.342407,305.453186 1345.838013,288.619659 
	C1345.322144,287.462463 1343.570190,286.131683 1342.374756,286.113922 
	C1330.058350,285.930542 1317.738159,286.001343 1305.250610,286.001343 
	C1280.357544,341.896545 1255.522461,397.661377 1230.432495,453.998566 
	C1243.741821,453.998566 1256.062622,454.125519 1268.373657,453.838654 
	C1269.920532,453.802612 1272.144897,451.898132 1272.817749,450.328766 
	C1277.079590,440.388336 1280.918335,430.266937 1285.128418,420.303131 
	C1285.587769,419.215973 1287.520874,418.103638 1288.776367,418.096802 
	C1312.598267,417.966431 1336.421387,417.956787 1360.243042,418.115204 
	C1361.599487,418.124237 1363.633057,419.485657 1364.183594,420.733063 
	C1367.638062,428.561310 1370.946411,436.466553 1373.946167,444.479919 
	C1377.487915,453.941254 1377.331177,453.999939 1387.135986,453.999939 
	C1389.301758,453.999939 1391.467407,453.999939 1393.633179,453.999939 
	C1402.034790,453.999939 1410.436401,453.999939 1419.757812,453.999939 
	C1404.060425,419.061127 1388.765259,385.017212 1373.052612,350.317322 
M844.902893,431.597046 
	C848.844666,430.724976 852.867432,430.117249 856.715393,428.938873 
	C886.296509,419.880493 904.428345,395.318176 903.917542,364.126678 
	C903.675110,349.318542 899.293274,335.891144 889.748779,324.007324 
	C880.781433,312.842102 869.515015,306.013031 856.087341,301.905731 
	C843.509888,298.058502 830.813904,298.189087 818.031921,300.021149 
	C801.110962,302.446442 787.137207,310.085297 776.052612,323.329742 
	C762.616882,339.383392 758.650391,358.046906 762.275757,377.841858 
	C766.914795,403.172485 782.462646,420.011688 806.914917,428.468842 
	C819.022400,432.656464 831.542603,432.179657 844.902893,431.597046 
M442.451324,399.946198 
	C439.230591,396.254486 436.009857,392.562775 432.757477,388.834778 
	C419.865662,402.660278 394.419250,405.336243 378.643646,396.223938 
	C370.858307,391.726929 365.720276,385.391449 363.864868,375.999969 
	C366.909851,375.999969 369.393372,375.999969 371.876892,375.999969 
	C400.190704,375.999939 428.504791,375.940643 456.817993,376.070618 
	C460.598938,376.087982 462.453400,375.253082 462.040955,371.090637 
	C461.233704,362.943573 461.645782,354.542114 459.795105,346.658691 
	C455.405609,327.960510 444.339600,313.386169 426.845917,305.653503 
	C403.265045,295.230164 379.427124,295.644348 356.446960,308.850067 
	C344.947052,315.458618 336.519012,325.016602 331.306488,336.767731 
	C326.225525,348.222260 324.146515,360.411285 325.791229,373.414215 
	C328.643280,395.961945 339.829712,412.305450 359.456177,423.031189 
	C379.274750,433.861938 400.562775,434.278381 421.930176,429.759918 
	C434.138092,427.178345 444.982391,421.072937 453.492279,410.577759 
	C449.890778,407.111725 446.428589,403.779755 442.451324,399.946198 
M701.299316,432.000305 
	C723.741455,429.814392 741.367981,420.208923 752.116699,399.163605 
	C742.051392,393.687134 732.273010,388.366730 722.427490,383.009857 
	C721.826904,383.756561 721.324585,384.211761 721.027588,384.775146 
	C711.772461,402.331757 688.433716,405.743042 673.723083,394.821259 
	C660.845276,385.260315 658.537781,371.894714 660.839355,356.644287 
	C664.060120,335.302826 688.597290,323.743347 707.237427,333.334198 
	C713.325928,336.466858 718.056519,342.238556 723.815613,347.150848 
	C727.489502,345.180267 732.355347,342.585571 737.206726,339.964020 
	C742.160645,337.286987 747.100342,334.583588 752.028015,331.901672 
	C744.097168,316.346497 734.588135,307.837036 719.980774,302.956207 
	C700.792480,296.544739 681.543579,296.983978 662.869568,304.214569 
	C647.831238,310.037415 635.906738,320.161865 628.544128,334.945862 
	C622.523804,347.034546 620.275574,359.584442 621.835876,373.228821 
	C624.470703,396.270020 636.338013,412.529388 656.132874,423.569427 
	C669.905884,431.250977 684.921387,432.771027 701.299316,432.000305 
M492.611237,252.000000 
	C490.842072,252.000000 489.072906,252.000000 487.267273,252.000000 
	C487.267273,311.599091 487.267273,370.623779 487.267273,429.708618 
	C499.924316,429.708618 512.311951,429.708618 524.728271,429.708618 
	C524.728271,370.392090 524.728271,311.367340 524.728271,252.000000 
	C514.167908,252.000000 503.876556,252.000000 492.611237,252.000000 
M597.000000,394.500000 
	C597.000000,363.102325 597.000000,331.704651 597.000000,300.305115 
	C584.038879,300.305115 571.653320,300.305115 559.286682,300.305115 
	C559.286682,343.637024 559.286682,386.662415 559.286682,429.693420 
	C571.960876,429.693420 584.346130,429.693420 597.000000,429.693420 
	C597.000000,418.092529 597.000000,406.796265 597.000000,394.500000 
M1472.000000,440.491730 
	C1472.000000,401.767731 1472.000000,363.043732 1472.000000,324.299255 
	C1459.050903,324.299255 1446.665527,324.299255 1434.281250,324.299255 
	C1434.281250,367.625488 1434.281250,410.651154 1434.281250,453.698639 
	C1446.949951,453.698639 1459.335083,453.698639 1472.000000,453.698639 
	C1472.000000,449.429535 1472.000000,445.458954 1472.000000,440.491730 
M1471.974487,299.341156 
	C1476.920288,291.851898 1478.661865,284.135010 1474.194946,275.685974 
	C1468.055420,264.073730 1450.260132,262.540955 1440.819336,267.553528 
	C1433.309937,271.540558 1429.221313,277.896271 1429.224121,285.889709 
	C1429.226807,293.832855 1432.990479,300.398926 1440.660522,304.290802 
	C1450.731079,309.400726 1462.125977,307.975677 1471.974487,299.341156 
M555.037903,268.041595 
	C561.291199,283.963989 576.564453,285.136780 586.976196,281.849365 
	C600.877380,277.460266 606.234985,260.998871 597.798157,249.568726 
	C592.291565,242.108414 584.262390,240.769730 575.508911,240.921539 
	C562.706482,241.143570 550.930786,254.048264 555.037903,268.041595 
M76.847687,291.519165 
	C76.484756,291.617004 76.121826,291.714844 75.758904,291.812683 
	C76.132530,291.949554 76.506157,292.086456 76.847687,291.519165 
z"/>
<path fill="#00B5F7" opacity="1.000000" stroke="none" 
	d="
M366.531342,1.000006 
	C367.670654,1.330740 368.331146,1.926321 369.013489,1.952474 
	C379.274292,2.345755 389.557251,2.377077 399.796478,3.066406 
	C415.702240,4.137218 431.582245,5.602497 447.466248,6.980234 
	C458.260620,7.916510 469.068024,8.780140 479.824341,10.057117 
	C491.502899,11.443579 503.132507,13.247029 514.777039,14.913488 
	C526.420410,16.579782 538.079590,18.155035 549.688660,20.036619 
	C563.683655,22.304897 577.676697,24.629843 591.591675,27.335928 
	C610.582642,31.029152 629.565002,34.814995 648.428711,39.099941 
	C666.806458,43.274509 685.141479,47.726616 703.296448,52.772388 
	C734.258484,61.377625 765.171936,70.191711 795.911377,79.556091 
	C840.369690,93.099716 884.061462,108.883308 927.034485,126.588501 
	C953.633240,137.547333 980.185791,148.641541 1006.495483,160.271133 
	C1025.426025,168.638855 1043.963867,177.903061 1062.597046,186.932083 
	C1076.822754,193.825378 1090.956421,200.911301 1105.064453,208.043381 
	C1111.306152,211.198792 1117.383179,214.680267 1123.812378,218.164078 
	C1123.248535,218.538971 1122.919800,218.947495 1122.582275,218.954666 
	C1105.156006,219.324631 1087.729248,219.677917 1070.301758,219.995361 
	C1050.875366,220.349213 1031.397583,219.964539 1012.047363,221.360565 
	C1004.720337,221.889175 999.149780,219.759811 993.072388,217.054932 
	C967.664001,205.746353 942.389771,194.103638 916.699829,183.468887 
	C887.293457,171.295731 857.681946,159.563156 827.817932,148.566849 
	C801.011292,138.696289 773.902405,129.568466 746.633423,121.052505 
	C715.965576,111.475075 685.030151,102.732117 654.092163,94.049973 
	C635.806274,88.918388 617.371826,84.249840 598.856934,80.017059 
	C575.400208,74.654495 551.823059,69.803154 528.242493,65.002853 
	C510.854736,61.463223 493.419403,58.117535 475.927673,55.141705 
	C463.530304,53.032578 451.004089,51.680058 438.534149,49.999130 
	C426.221375,48.339390 413.924652,46.541298 401.587128,45.091194 
	C393.425629,44.131927 385.205048,43.673317 377.010071,43.001221 
	C360.787567,41.670757 344.564545,40.346779 328.341309,39.025795 
	C327.844238,38.985321 327.342102,39.008610 326.842316,39.000706 
	C305.747345,38.667221 284.638947,37.727055 263.561615,38.192589 
	C246.816895,38.562428 230.056519,40.185818 213.400864,42.102348 
	C194.920380,44.228867 176.481766,46.920853 158.151352,50.096478 
	C137.285919,53.711277 117.093170,59.935665 97.551361,68.137314 
	C83.827675,73.897118 70.745201,80.858284 58.960575,90.028870 
	C39.731682,104.992439 26.291157,123.607567 21.938568,148.157791 
	C17.886072,171.015366 22.830931,192.527405 30.943270,213.631180 
	C41.391018,240.810379 56.817707,265.094360 74.491852,288.057587 
	C74.840805,288.511017 74.845573,289.229309 75.389023,291.183838 
	C71.849785,288.360260 69.007530,286.594208 66.785767,284.242096 
	C46.257145,262.508820 27.167915,239.711288 14.625252,212.188416 
	C7.968996,197.582336 2.857538,182.542084 1.375461,166.188202 
	C1.000000,158.645752 1.000000,151.291504 1.372198,143.285248 
	C3.383548,135.014420 4.237959,127.119232 6.805788,119.827438 
	C15.243725,95.866486 31.116573,77.239838 51.295315,62.437767 
	C69.884605,48.801632 90.470642,38.653214 112.220520,30.910711 
	C134.611160,22.940109 157.448730,16.656551 180.938522,12.986892 
	C201.406372,9.789325 221.879959,6.491030 242.456558,4.174939 
	C256.373108,2.608499 270.473694,2.687720 284.488495,1.963883 
	C285.672455,1.902735 286.830109,1.333298 288.000000,1.000000 
	C314.020905,1.000000 340.041779,1.000000 366.531342,1.000006 
z"/>
<path fill="#FF6600" opacity="1.000000" stroke="none" 
	d="
M1084.468628,732.000000 
	C1083.002808,731.666687 1082.014771,731.076233 1081.006836,731.039612 
	C1070.083130,730.643005 1059.130371,730.691162 1048.236816,729.907471 
	C1035.336914,728.979492 1022.475708,727.455261 1009.618652,726.004517 
	C995.815674,724.446899 982.002258,722.914551 968.257385,720.928345 
	C954.579285,718.951782 940.967407,716.501099 927.350525,714.120972 
	C910.376953,711.154053 893.393188,708.225952 876.478882,704.945618 
	C861.669434,702.073486 846.898315,698.960022 832.203308,695.552063 
	C812.157410,690.903198 792.158142,686.036743 772.217834,680.954102 
	C757.176147,677.120117 742.143250,673.175049 727.310364,668.615662 
	C700.416626,660.348755 673.453552,652.215393 646.927185,642.869019 
	C615.507507,631.798584 584.358948,619.907166 553.398621,607.602356 
	C531.898865,599.057617 510.719879,589.632629 489.750275,579.845215 
	C463.972412,567.813538 438.264130,555.562683 413.077576,542.354309 
	C388.805664,529.625671 365.121460,515.755554 341.395660,502.012939 
	C322.791626,491.237061 304.518158,479.890442 286.512146,467.896912 
	C287.834747,468.308563 289.235901,468.558411 290.467773,469.156860 
	C303.334717,475.407104 316.051086,481.982056 329.047699,487.947388 
	C355.396210,500.041016 381.637268,512.425232 408.388855,523.570618 
	C446.302582,539.366516 484.480194,554.563232 522.848816,569.220703 
	C547.475952,578.628601 572.423828,587.343567 597.629883,595.055603 
	C637.661926,607.303772 677.869507,619.053345 718.307739,629.874146 
	C749.284912,638.163269 780.690796,644.879211 811.986938,651.936279 
	C831.295593,656.290344 850.695618,660.301514 870.165466,663.860474 
	C889.050293,667.312317 908.062561,670.081665 927.045227,672.978210 
	C943.160522,675.437134 959.291748,677.816895 975.458435,679.902222 
	C983.759888,680.973022 992.146118,681.452393 1000.508057,681.973450 
	C1017.947815,683.060181 1035.385742,684.341614 1052.844971,684.907959 
	C1074.424316,685.607910 1096.025391,685.938477 1117.615601,685.883728 
	C1128.973511,685.854919 1140.359985,684.994751 1151.676636,683.914490 
	C1165.177368,682.625854 1178.685181,681.118896 1192.066772,678.947144 
	C1210.174561,676.008423 1228.322510,673.016296 1246.164429,668.819092 
	C1266.370239,664.065918 1285.945068,657.090576 1304.330566,647.226440 
	C1317.953857,639.917236 1330.749268,631.329773 1340.862183,619.501465 
	C1352.441528,605.958130 1359.621948,590.605652 1360.129395,572.219727 
	C1360.822021,547.131653 1351.324097,525.501709 1339.089355,504.585815 
	C1338.683105,503.891296 1338.275391,503.195648 1337.914795,502.477203 
	C1337.714722,502.078491 1337.610718,501.631561 1337.391846,501.000488 
	C1358.405640,501.000488 1379.216064,500.941132 1400.024414,501.126312 
	C1401.503418,501.139465 1403.576294,502.606689 1404.344482,503.975128 
	C1414.011230,521.195679 1421.687012,539.336914 1424.759521,558.865112 
	C1427.825317,578.349365 1426.630859,597.752686 1418.972900,616.376221 
	C1414.407349,627.479248 1407.858643,637.240417 1400.169800,646.376587 
	C1383.291260,666.432373 1361.586792,679.821716 1338.322021,690.865784 
	C1314.096802,702.365967 1288.674561,710.510559 1262.423340,716.016052 
	C1249.719727,718.680237 1237.048340,721.541199 1224.271240,723.796326 
	C1215.587891,725.328918 1206.756104,726.059875 1197.972900,726.978394 
	C1184.442505,728.393311 1170.911255,729.842712 1157.351685,730.914429 
	C1150.730469,731.437744 1144.044434,731.141846 1137.193848,731.608398 
	C1119.645752,732.000000 1102.291504,732.000000 1084.468628,732.000000 
z"/>
<path fill="#FFFFFF" opacity="1.000000" stroke="none" 
	d="
M287.531342,1.000000 
	C286.830109,1.333298 285.672455,1.902735 284.488495,1.963883 
	C270.473694,2.687720 256.373108,2.608499 242.456558,4.174939 
	C221.879959,6.491030 201.406372,9.789325 180.938522,12.986892 
	C157.448730,16.656551 134.611160,22.940109 112.220520,30.910711 
	C90.470642,38.653214 69.884605,48.801632 51.295315,62.437767 
	C31.116573,77.239838 15.243725,95.866486 6.805788,119.827438 
	C4.237959,127.119232 3.383548,135.014420 1.372198,142.816620 
	C1.000000,95.714981 1.000000,48.429958 1.000000,1.000000 
	C96.354179,1.000000 191.708435,1.000000 287.531342,1.000000 
z"/>
<path fill="#4D4D4D" opacity="1.000000" stroke="none" 
	d="
M1586.000000,357.531342 
	C1579.248047,358.334961 1572.374756,357.987427 1565.771973,359.161285 
	C1555.289307,361.024963 1545.473877,372.404510 1545.094971,383.054810 
	C1544.422729,401.954651 1544.318726,420.874969 1544.010864,439.787292 
	C1543.937744,444.277222 1544.000000,448.769318 1544.000000,453.629883 
	C1531.471191,453.629883 1519.078735,453.629883 1506.341553,453.629883 
	C1506.341553,410.753235 1506.341553,367.707886 1506.341553,324.330505 
	C1517.940186,324.330505 1529.665405,324.330505 1541.888184,324.330505 
	C1541.888184,329.617126 1541.888184,334.983887 1541.888184,340.745667 
	C1553.824707,327.684570 1568.258301,322.406738 1585.537720,323.000000 
	C1586.000000,334.354218 1586.000000,345.708466 1586.000000,357.531342 
z"/>
<path fill="#4D4D4D" opacity="1.000000" stroke="none" 
	d="
M1181.023071,297.100647 
	C1181.015381,316.417419 1180.427368,335.271179 1181.172852,354.072021 
	C1181.840698,370.918457 1176.624878,387.389160 1179.529907,404.264191 
	C1179.007446,404.100891 1178.484863,403.937592 1177.962280,403.774261 
	C1176.975342,405.311768 1175.125854,406.855621 1175.137085,408.385773 
	C1175.233398,421.468597 1175.671875,434.548859 1175.994751,447.630219 
	C1176.035767,449.295685 1175.459473,451.241241 1176.136597,452.560608 
	C1177.027466,454.296234 1178.649048,456.402130 1180.351562,456.851196 
	C1189.345459,459.223541 1198.482544,461.048920 1207.511963,463.296783 
	C1208.527100,463.549500 1209.720825,465.186371 1209.894043,466.324097 
	C1210.404785,469.678680 1210.444458,473.104950 1210.684814,476.750549 
	C1165.450439,476.750549 1120.016113,476.750549 1073.991455,476.750549 
	C1073.991455,472.831726 1073.633545,468.878632 1074.075317,465.017029 
	C1074.736816,459.235260 1080.040039,458.924591 1084.086426,458.145447 
	C1091.758667,456.668213 1099.572021,455.850647 1107.358398,455.078461 
	C1110.202759,454.796387 1110.987183,453.668213 1111.041748,451.020935 
	C1111.276855,439.614960 1111.518677,428.205261 1112.045898,416.810272 
	C1112.486206,407.295715 1114.497803,397.695923 1113.667114,388.324097 
	C1112.806763,378.617432 1116.247070,368.725006 1111.830200,359.090912 
	C1110.314575,355.784973 1110.738647,351.262421 1111.270874,347.433960 
	C1111.840820,343.334290 1113.376221,339.454437 1109.630371,336.048981 
	C1109.269653,335.720978 1109.455688,334.632843 1109.598755,333.941193 
	C1109.954956,332.220276 1111.089600,330.358002 1108.032471,329.824463 
	C1107.567627,329.743347 1107.010864,328.287720 1107.051392,327.496246 
	C1107.724121,314.365906 1108.523071,301.241882 1109.170410,288.110413 
	C1109.235962,286.780701 1108.843506,284.471832 1108.096924,284.205475 
	C1099.923096,281.289215 1091.768311,278.084808 1083.328125,276.242737 
	C1078.701294,275.233002 1073.505371,276.404022 1068.630859,277.067505 
	C1062.765625,277.865875 1059.130005,274.555756 1056.225830,270.501038 
	C1052.938843,265.911774 1050.166748,260.919220 1047.526733,255.914276 
	C1046.029541,253.075745 1044.234253,252.027802 1040.982666,251.890427 
	C1033.340454,251.567596 1025.671021,251.000488 1018.122986,249.823761 
	C1015.523254,249.418442 1013.138245,247.051315 1010.926025,245.248138 
	C1010.494446,244.896439 1011.006592,242.184448 1011.605835,241.960831 
	C1016.373108,240.181900 1021.179321,238.249924 1026.151611,237.367371 
	C1029.515259,236.770325 1033.605225,236.857452 1036.612183,238.261810 
	C1048.329102,243.733841 1060.406616,243.679138 1072.754395,241.993408 
	C1082.719360,240.632965 1092.703613,239.404892 1102.653687,237.944275 
	C1112.574951,236.487869 1122.464478,234.815186 1132.531494,233.211258 
	C1133.977051,224.155853 1134.782959,214.398926 1137.225952,205.070740 
	C1139.900635,194.858124 1152.153931,192.407974 1158.651123,200.322739 
	C1160.057861,202.036270 1160.829468,204.729996 1160.898071,207.002289 
	C1161.169556,215.992905 1161.044434,224.995468 1161.077148,233.993576 
	C1161.077759,234.140076 1161.215942,234.286072 1160.643066,233.154465 
	C1175.467285,237.512527 1189.328613,241.608612 1203.210815,245.632614 
	C1204.453247,245.992752 1205.830811,245.975235 1207.146240,245.980499 
	C1215.019165,246.011917 1222.895630,246.139526 1230.763184,245.934631 
	C1234.160156,245.846176 1237.640381,244.271790 1240.905518,244.706070 
	C1249.891113,245.901199 1257.231812,237.021103 1265.896729,240.272156 
	C1271.195801,242.260315 1278.147095,239.484940 1282.611816,246.822937 
	C1279.647339,248.568817 1276.828003,250.692352 1273.670288,251.996536 
	C1266.097778,255.124130 1258.057739,255.407379 1249.987427,254.985992 
	C1247.007812,254.830399 1245.710449,255.412338 1244.744873,259.016937 
	C1242.752441,266.455780 1239.214722,273.493774 1232.255615,277.809143 
	C1230.721680,278.760315 1228.532471,278.828766 1226.620605,278.967773 
	C1216.473999,279.705566 1206.255127,279.853851 1196.194214,281.200500 
	C1190.887085,281.910858 1185.851074,284.646790 1180.285767,286.611847 
	C1180.508545,289.634216 1180.765869,293.124420 1181.023071,297.100647 
z"/>
<path fill="#4D4D4D" opacity="1.000000" stroke="none" 
	d="
M259.000000,413.997345 
	C259.000000,396.528778 259.000000,379.559418 259.000000,362.296234 
	C233.648682,362.296234 208.591064,362.296234 183.058594,362.296234 
	C183.058594,384.743103 183.058594,407.138580 183.058594,429.764160 
	C169.979462,429.764160 157.370361,429.764160 144.380005,429.764160 
	C144.380005,374.156281 144.380005,318.436707 144.380005,262.358276 
	C156.889450,262.358276 169.617661,262.358276 182.822296,262.358276 
	C182.822296,283.955231 182.822296,305.684357 182.822296,327.704620 
	C208.351776,327.704620 233.409393,327.704620 258.941833,327.704620 
	C258.941833,305.923584 258.941833,284.194458 258.941833,262.235657 
	C272.020935,262.235657 284.630035,262.235657 297.620178,262.235657 
	C297.620178,317.844116 297.620178,373.563690 297.620178,429.641907 
	C285.110138,429.641907 272.381927,429.641907 259.000000,429.641907 
	C259.000000,424.683777 259.000000,419.590179 259.000000,413.997345 
z"/>
<path fill="#4D4D4D" opacity="1.000000" stroke="none" 
	d="
M1067.771484,386.530701 
	C1062.216309,403.817657 1052.208740,417.008514 1036.296509,425.252106 
	C1016.867554,435.317688 986.376648,436.004242 967.108276,418.049896 
	C967.108276,437.852173 967.108276,457.188690 967.108276,476.759460 
	C954.323364,476.759460 942.044983,476.759460 929.382812,476.759460 
	C929.382812,418.154938 929.382812,359.426544 929.382812,300.348419 
	C940.907837,300.348419 952.637878,300.348419 964.846924,300.348419 
	C964.846924,304.948364 964.846924,309.669312 964.846924,313.798737 
	C970.765442,310.126068 976.184631,305.452515 982.472290,303.100586 
	C1003.647583,295.179810 1024.322388,297.177643 1043.149902,309.863068 
	C1057.561890,319.573456 1066.126831,333.570129 1069.018066,350.877747 
	C1070.996094,362.718414 1070.301025,374.454132 1067.771484,386.530701 
M1001.265015,400.999329 
	C1002.849915,400.667847 1004.425659,400.281769 1006.021240,400.013855 
	C1015.529236,398.417236 1022.542969,393.200958 1026.964233,384.809418 
	C1031.220581,376.730652 1032.457153,368.161224 1031.134277,358.917053 
	C1029.332397,346.325928 1023.216675,337.049530 1011.560486,332.402222 
	C999.334412,327.527649 987.544556,329.258240 977.387085,338.161224 
	C968.473877,345.973541 966.880493,356.282654 966.865112,367.563232 
	C966.838989,386.721344 980.554688,401.498260 1001.265015,400.999329 
z"/>
<path fill="#4D4D4D" opacity="1.000000" stroke="none" 
	d="
M1373.261230,350.645325 
	C1388.765259,385.017212 1404.060425,419.061127 1419.757812,453.999939 
	C1410.436401,453.999939 1402.034790,453.999939 1393.633179,453.999939 
	C1391.467407,453.999939 1389.301758,453.999939 1387.135986,453.999939 
	C1377.331177,453.999939 1377.487915,453.941254 1373.946167,444.479919 
	C1370.946411,436.466553 1367.638062,428.561310 1364.183594,420.733063 
	C1363.633057,419.485657 1361.599487,418.124237 1360.243042,418.115204 
	C1336.421387,417.956787 1312.598267,417.966431 1288.776367,418.096802 
	C1287.520874,418.103638 1285.587769,419.215973 1285.128418,420.303131 
	C1280.918335,430.266937 1277.079590,440.388336 1272.817749,450.328766 
	C1272.144897,451.898132 1269.920532,453.802612 1268.373657,453.838654 
	C1256.062622,454.125519 1243.741821,453.998566 1230.432495,453.998566 
	C1255.522461,397.661377 1280.357544,341.896545 1305.250610,286.001343 
	C1317.738159,286.001343 1330.058350,285.930542 1342.374756,286.113922 
	C1343.570190,286.131683 1345.322144,287.462463 1345.838013,288.619659 
	C1353.342407,305.453186 1360.671875,322.364532 1368.063477,339.248505 
	C1369.686401,342.955688 1371.387573,346.628601 1373.261230,350.645325 
M1309.527832,361.975098 
	C1306.009277,370.437286 1302.490601,378.899506 1298.814819,387.739563 
	C1316.099243,387.739563 1332.936768,387.739563 1350.581421,387.739563 
	C1341.930176,366.868744 1333.486938,346.499847 1324.613403,325.092957 
	C1319.388794,337.982361 1314.663086,349.640930 1309.527832,361.975098 
z"/>
<path fill="#4D4D4D" opacity="1.000000" stroke="none" 
	d="
M844.477051,431.774170 
	C831.542603,432.179657 819.022400,432.656464 806.914917,428.468842 
	C782.462646,420.011688 766.914795,403.172485 762.275757,377.841858 
	C758.650391,358.046906 762.616882,339.383392 776.052612,323.329742 
	C787.137207,310.085297 801.110962,302.446442 818.031921,300.021149 
	C830.813904,298.189087 843.509888,298.058502 856.087341,301.905731 
	C869.515015,306.013031 880.781433,312.842102 889.748779,324.007324 
	C899.293274,335.891144 903.675110,349.318542 903.917542,364.126678 
	C904.428345,395.318176 886.296509,419.880493 856.715393,428.938873 
	C852.867432,430.117249 848.844666,430.724976 844.477051,431.774170 
M845.848572,332.351776 
	C843.035645,331.636292 840.260742,330.613556 837.403015,330.259552 
	C826.199585,328.871674 816.166870,332.038574 808.538635,340.219879 
	C800.580750,348.754791 798.643005,359.805237 800.256104,370.927277 
	C801.126953,376.931732 803.882446,382.975037 807.026062,388.264893 
	C811.809509,396.314209 820.201782,399.543121 829.028198,400.849915 
	C838.470276,402.247925 851.773865,397.889954 858.230713,388.574860 
	C863.986389,380.271301 865.783813,371.283966 864.945740,361.612823 
	C863.842102,348.876251 858.794678,338.472839 845.848572,332.351776 
z"/>
<path fill="#4D4D4D" opacity="1.000000" stroke="none" 
	d="
M442.708862,400.197021 
	C446.428589,403.779755 449.890778,407.111725 453.492279,410.577759 
	C444.982391,421.072937 434.138092,427.178345 421.930176,429.759918 
	C400.562775,434.278381 379.274750,433.861938 359.456177,423.031189 
	C339.829712,412.305450 328.643280,395.961945 325.791229,373.414215 
	C324.146515,360.411285 326.225525,348.222260 331.306488,336.767731 
	C336.519012,325.016602 344.947052,315.458618 356.446960,308.850067 
	C379.427124,295.644348 403.265045,295.230164 426.845917,305.653503 
	C444.339600,313.386169 455.405609,327.960510 459.795105,346.658691 
	C461.645782,354.542114 461.233704,362.943573 462.040955,371.090637 
	C462.453400,375.253082 460.598938,376.087982 456.817993,376.070618 
	C428.504791,375.940643 400.190704,375.999939 371.876892,375.999969 
	C369.393372,375.999969 366.909851,375.999969 363.864868,375.999969 
	C365.720276,385.391449 370.858307,391.726929 378.643646,396.223938 
	C394.419250,405.336243 419.865662,402.660278 432.757477,388.834778 
	C436.009857,392.562775 439.230591,396.254486 442.708862,400.197021 
M369.697327,354.000031 
	C388.405090,354.000031 407.112885,354.000031 425.912720,354.000031 
	C422.913208,336.321899 410.807190,327.302399 390.608490,328.105713 
	C378.033875,328.605774 364.863525,338.385864 363.778992,354.000031 
	C365.445953,354.000031 367.104523,354.000031 369.697327,354.000031 
z"/>
<path fill="#4D4D4D" opacity="1.000000" stroke="none" 
	d="
M700.820190,432.000183 
	C684.921387,432.771027 669.905884,431.250977 656.132874,423.569427 
	C636.338013,412.529388 624.470703,396.270020 621.835876,373.228821 
	C620.275574,359.584442 622.523804,347.034546 628.544128,334.945862 
	C635.906738,320.161865 647.831238,310.037415 662.869568,304.214569 
	C681.543579,296.983978 700.792480,296.544739 719.980774,302.956207 
	C734.588135,307.837036 744.097168,316.346497 752.028015,331.901672 
	C747.100342,334.583588 742.160645,337.286987 737.206726,339.964020 
	C732.355347,342.585571 727.489502,345.180267 723.815613,347.150848 
	C718.056519,342.238556 713.325928,336.466858 707.237427,333.334198 
	C688.597290,323.743347 664.060120,335.302826 660.839355,356.644287 
	C658.537781,371.894714 660.845276,385.260315 673.723083,394.821259 
	C688.433716,405.743042 711.772461,402.331757 721.027588,384.775146 
	C721.324585,384.211761 721.826904,383.756561 722.427490,383.009857 
	C732.273010,388.366730 742.051392,393.687134 752.116699,399.163605 
	C741.367981,420.208923 723.741455,429.814392 700.820190,432.000183 
z"/>
<path fill="#4D4D4D" opacity="1.000000" stroke="none" 
	d="
M493.098206,252.000000 
	C503.876556,252.000000 514.167908,252.000000 524.728271,252.000000 
	C524.728271,311.367340 524.728271,370.392090 524.728271,429.708618 
	C512.311951,429.708618 499.924316,429.708618 487.267273,429.708618 
	C487.267273,370.623779 487.267273,311.599091 487.267273,252.000000 
	C489.072906,252.000000 490.842072,252.000000 493.098206,252.000000 
z"/>
<path fill="#4D4D4D" opacity="1.000000" stroke="none" 
	d="
M597.000000,395.000000 
	C597.000000,406.796265 597.000000,418.092529 597.000000,429.693420 
	C584.346130,429.693420 571.960876,429.693420 559.286682,429.693420 
	C559.286682,386.662415 559.286682,343.637024 559.286682,300.305115 
	C571.653320,300.305115 584.038879,300.305115 597.000000,300.305115 
	C597.000000,331.704651 597.000000,363.102325 597.000000,395.000000 
z"/>
<path fill="#4D4D4D" opacity="1.000000" stroke="none" 
	d="
M1472.000000,440.990051 
	C1472.000000,445.458954 1472.000000,449.429535 1472.000000,453.698639 
	C1459.335083,453.698639 1446.949951,453.698639 1434.281250,453.698639 
	C1434.281250,410.651154 1434.281250,367.625488 1434.281250,324.299255 
	C1446.665527,324.299255 1459.050903,324.299255 1472.000000,324.299255 
	C1472.000000,363.043732 1472.000000,401.767731 1472.000000,440.990051 
z"/>
<path fill="#4D4D4D" opacity="1.000000" stroke="none" 
	d="
M1471.768921,299.654480 
	C1462.125977,307.975677 1450.731079,309.400726 1440.660522,304.290802 
	C1432.990479,300.398926 1429.226807,293.832855 1429.224121,285.889709 
	C1429.221313,277.896271 1433.309937,271.540558 1440.819336,267.553528 
	C1450.260132,262.540955 1468.055420,264.073730 1474.194946,275.685974 
	C1478.661865,284.135010 1476.920288,291.851898 1471.768921,299.654480 
z"/>
<path fill="#4D4D4D" opacity="1.000000" stroke="none" 
	d="
M555.020325,267.631073 
	C550.930786,254.048264 562.706482,241.143570 575.508911,240.921539 
	C584.262390,240.769730 592.291565,242.108414 597.798157,249.568726 
	C606.234985,260.998871 600.877380,277.460266 586.976196,281.849365 
	C576.564453,285.136780 561.291199,283.963989 555.020325,267.631073 
z"/>
<path fill="#00B5F7" opacity="1.000000" stroke="none" 
	d="
M76.863739,291.871246 
	C76.506157,292.086456 76.132530,291.949554 75.758896,291.812683 
	C76.121826,291.714844 76.484756,291.617004 76.863739,291.871246 
z"/>
<path fill="#FFFFFF" opacity="1.000000" stroke="none" 
	d="
M1000.811157,400.999664 
	C980.554688,401.498260 966.838989,386.721344 966.865112,367.563232 
	C966.880493,356.282654 968.473877,345.973541 977.387085,338.161224 
	C987.544556,329.258240 999.334412,327.527649 1011.560486,332.402222 
	C1023.216675,337.049530 1029.332397,346.325928 1031.134277,358.917053 
	C1032.457153,368.161224 1031.220581,376.730652 1026.964233,384.809418 
	C1022.542969,393.200958 1015.529236,398.417236 1006.021240,400.013855 
	C1004.425659,400.281769 1002.849915,400.667847 1000.811157,400.999664 
z"/>
<path fill="#FFFFFF" opacity="1.000000" stroke="none" 
	d="
M1309.732544,361.637329 
	C1314.663086,349.640930 1319.388794,337.982361 1324.613403,325.092957 
	C1333.486938,346.499847 1341.930176,366.868744 1350.581421,387.739563 
	C1332.936768,387.739563 1316.099243,387.739563 1298.814819,387.739563 
	C1302.490601,378.899506 1306.009277,370.437286 1309.732544,361.637329 
z"/>
<path fill="#FFFFFF" opacity="1.000000" stroke="none" 
	d="
M846.141968,332.620361 
	C858.794678,338.472839 863.842102,348.876251 864.945740,361.612823 
	C865.783813,371.283966 863.986389,380.271301 858.230713,388.574860 
	C851.773865,397.889954 838.470276,402.247925 829.028198,400.849915 
	C820.201782,399.543121 811.809509,396.314209 807.026062,388.264893 
	C803.882446,382.975037 801.126953,376.931732 800.256104,370.927277 
	C798.643005,359.805237 800.580750,348.754791 808.538635,340.219879 
	C816.166870,332.038574 826.199585,328.871674 837.403015,330.259552 
	C840.260742,330.613556 843.035645,331.636292 846.141968,332.620361 
z"/>
<path fill="#FFFFFF" opacity="1.000000" stroke="none" 
	d="
M369.230194,354.000031 
	C367.104523,354.000031 365.445953,354.000031 363.778992,354.000031 
	C364.863525,338.385864 378.033875,328.605774 390.608490,328.105713 
	C410.807190,327.302399 422.913208,336.321899 425.912720,354.000031 
	C407.112885,354.000031 388.405090,354.000031 369.230194,354.000031 
z"/>
</svg>