<svg version="1.1" id="Layer_1" xmlns="http://www.w3.org/2000/svg" xmlns:xlink="http://www.w3.org/1999/xlink" x="0px" y="0px"
	 width="100%" viewBox="0 0 1585 612" enable-background="new 0 0 1585 612" xml:space="preserve">
<path fill="#FFFFFF" opacity="1.000000" stroke="none" 
	d="
M1586.000000,265.000000 
	C1586.000000,380.979706 1586.000000,496.959442 1586.000000,612.969604 
	C1057.779297,612.969604 529.558594,612.969604 1.000000,612.969604 
	C1.000000,464.305481 1.000000,315.610687 1.335329,166.665619 
	C2.311925,170.007477 2.871403,173.616486 3.607016,177.189209 
	C11.594792,215.983948 33.403877,246.892517 59.776123,275.579041 
	C63.083668,279.034668 65.566681,283.007538 69.637062,285.058899 
	C70.035835,284.668823 70.434601,284.278778 70.833366,283.888702 
	C67.902336,280.246552 64.971306,276.604401 62.023026,272.980499 
	C62.005768,272.998779 62.033901,272.962463 61.892868,272.779358 
	C61.516102,272.397858 61.272362,272.209869 60.960075,271.684692 
	C57.971119,266.526886 55.030842,261.723816 52.116295,256.905212 
	C36.496738,231.081451 23.364050,204.319778 20.481169,173.646759 
	C18.142498,148.764008 24.361046,126.418045 40.338615,107.057426 
	C55.813480,88.305962 76.130577,76.364395 98.203552,67.266518 
	C142.955246,48.821091 190.224655,42.468933 238.030624,39.057320 
	C272.826752,36.574135 307.608795,37.644772 342.393005,39.784554 
	C388.299164,42.608513 433.986298,47.603928 479.254913,55.509171 
	C519.388367,62.517658 559.435242,70.318260 599.137390,79.436577 
	C677.203613,97.365906 753.793823,120.537621 828.862427,148.493820 
	C844.556763,154.338531 859.937317,157.698898 876.847656,157.297089 
	C914.482849,156.402802 952.153931,157.018982 989.810425,157.019562 
	C991.829285,157.019592 993.848206,157.019577 995.867065,157.019577 
	C994.547668,155.451614 993.232605,154.781403 991.884155,154.186783 
	C913.838013,119.773575 833.958496,90.403427 752.026184,66.610695 
	C681.961121,46.264118 610.999023,30.008711 538.893799,18.767687 
	C487.529388,10.760085 435.964020,4.808615 383.987396,2.724107 
	C379.642181,2.549843 375.328400,1.593166 371.000000,1.000000 
	C775.883423,1.000000 1180.766846,1.000000 1586.000000,1.000000 
	C1586.000000,77.361015 1586.000000,153.722565 1585.545410,230.539093 
	C1568.598145,231.332825 1553.726074,235.625580 1541.954224,249.679001 
	C1541.954224,243.447266 1541.954224,238.376633 1541.954224,233.288025 
	C1529.847534,233.288025 1518.161987,233.288025 1506.439453,233.288025 
	C1506.439453,276.287598 1506.439453,318.877167 1506.439453,361.736237 
	C1518.886841,361.736237 1531.105347,361.736237 1543.789551,361.736237 
	C1543.789551,359.689758 1543.784302,357.897736 1543.790283,356.105743 
	C1543.858154,335.782593 1543.519775,315.447266 1544.126099,295.140137 
	C1544.612183,278.860809 1554.162476,268.451904 1570.109009,265.767914 
	C1575.302002,264.893860 1580.697266,265.221802 1586.000000,265.000000 
M1395.878174,529.242249 
	C1396.171509,529.066711 1396.343140,528.809937 1396.421631,528.387390 
	C1396.421631,528.387390 1396.510742,528.387268 1397.082520,528.099976 
	C1398.866821,525.880005 1400.651001,523.660095 1402.415894,521.340271 
	C1402.415894,521.340271 1402.509644,521.379944 1403.046265,521.088806 
	C1403.697388,520.059021 1404.348511,519.029175 1405.000000,518.000000 
	C1405.000000,518.000000 1404.999756,517.999512 1405.470581,517.821228 
	C1405.593140,517.525818 1405.715820,517.230408 1405.934448,516.933716 
	C1405.934448,516.933716 1405.905273,516.842224 1406.503662,516.562561 
	C1407.773071,514.450989 1409.042603,512.339355 1410.067505,510.079071 
	C1410.067505,510.079071 1410.284912,510.265167 1410.864380,509.938751 
	C1412.669312,506.373657 1414.474243,502.808563 1416.197144,499.236633 
	C1416.197144,499.236633 1416.265503,499.225830 1416.835693,498.832794 
	C1422.861084,486.138184 1425.735352,472.699341 1425.863281,458.712585 
	C1426.114258,431.248260 1416.865356,406.476135 1403.723755,382.917664 
	C1402.916870,381.471375 1400.371948,380.245361 1398.606689,380.205505 
	C1387.781616,379.961029 1376.948120,380.089264 1366.117432,380.091217 
	C1356.996948,380.092865 1347.876587,380.091553 1337.943726,380.091553 
	C1339.116333,382.333710 1340.014526,383.858490 1340.736816,385.462463 
	C1345.918579,396.968536 1352.093384,408.152344 1356.014893,420.075867 
	C1365.147095,447.841980 1362.067505,474.174683 1342.579712,497.007416 
	C1336.374390,504.277924 1328.590332,510.200958 1321.215576,516.811523 
	C1321.215576,516.811523 1321.023682,517.068970 1320.359497,517.148865 
	C1318.804077,518.312012 1317.248779,519.475159 1315.995117,521.000000 
	C1315.995117,521.000000 1315.696167,520.637878 1314.998169,520.763611 
	C1306.871216,524.928223 1298.947876,529.563782 1290.582886,533.177551 
	C1250.280762,550.588684 1207.587158,557.810120 1164.251099,561.911011 
	C1147.877930,563.460510 1131.427124,564.189331 1114.364014,565.172974 
	C1113.931519,565.228088 1113.499023,565.283203 1112.144653,565.108521 
	C1095.741943,565.182556 1079.339355,565.256592 1062.299438,565.176636 
	C1061.865845,565.212769 1061.432373,565.248901 1060.122437,565.037476 
	C1047.396851,564.504700 1034.671143,563.971863 1021.312073,563.237305 
	C1020.871765,563.253662 1020.431458,563.270020 1019.166931,563.017395 
	C1005.092407,561.829773 991.017944,560.642151 976.320312,559.222168 
	C975.879822,559.232605 975.439270,559.242981 974.224670,558.972473 
	C917.995605,552.041321 862.062378,543.065002 806.849487,530.486633 
	C757.050903,519.141785 707.478455,506.610474 658.254028,492.984955 
	C584.882935,472.675568 513.231934,447.074921 443.038910,417.636841 
	C402.227539,400.521057 362.095673,381.785858 321.640686,363.818359 
	C316.918182,361.720917 312.085205,359.872223 307.303436,357.908234 
	C306.980682,358.530060 306.657959,359.151917 306.335205,359.773743 
	C313.895203,364.189850 321.455231,368.605927 329.182343,373.254608 
	C329.182343,373.254608 329.465454,373.297546 329.832581,373.885590 
	C336.234497,377.560333 342.636444,381.235077 349.275787,385.153748 
	C349.275787,385.153748 349.613434,385.197266 349.950195,385.797760 
	C360.308075,391.539734 370.665924,397.281708 381.200256,403.243317 
	C381.200256,403.243317 381.481323,403.262299 381.851929,403.856750 
	C388.239532,407.232178 394.627136,410.607605 401.000000,414.000000 
	C401.000000,414.000000 401.015533,413.983521 401.357330,414.563843 
	C405.185822,416.458679 409.014343,418.353516 412.955902,420.083405 
	C412.955902,420.083405 412.803162,420.212494 413.160156,420.793610 
	C416.524170,422.582947 419.839447,424.471893 423.260559,426.144501 
	C438.426788,433.559357 453.623352,440.912140 468.989655,448.095490 
	C468.989655,448.095490 468.780975,448.256561 469.166626,448.818695 
	C470.656189,449.559631 472.133575,450.326294 473.637024,451.037933 
	C546.833496,485.682953 622.036560,515.284485 699.570068,538.602173 
	C741.284546,551.147583 783.464294,562.288574 825.777710,572.661987 
	C873.142029,584.273560 921.174744,592.813904 969.475220,599.671082 
	C982.641113,601.540283 995.866150,602.993713 1009.685608,604.841919 
	C1010.119263,604.826538 1010.552856,604.811218 1011.773193,605.056274 
	C1013.917175,605.337219 1016.055237,605.677185 1018.205933,605.890381 
	C1070.795654,611.103577 1123.457397,612.546082 1176.142700,607.824768 
	C1194.492310,606.180359 1212.721680,603.192566 1231.669678,600.876587 
	C1232.092163,600.756653 1232.514648,600.636658 1233.727661,600.653320 
	C1261.442871,595.769592 1288.878906,589.588440 1315.006714,579.018738 
	C1329.866455,573.007324 1344.019531,565.248718 1358.790161,558.218018 
	C1358.790161,558.218018 1358.965698,557.968567 1359.664551,557.898743 
	C1361.941895,556.351685 1364.219116,554.804565 1366.793213,553.191711 
	C1366.793213,553.191711 1366.966187,552.941772 1367.655518,552.852600 
	C1371.099365,550.232727 1374.543091,547.612915 1378.000000,545.000000 
	C1378.000000,545.000000 1377.994263,544.987732 1378.626587,544.928223 
	C1379.531982,544.086548 1380.437378,543.244873 1381.030396,542.126465 
	C1381.030396,542.126465 1381.340820,542.394287 1381.910645,542.275085 
	C1382.284180,541.856689 1382.657837,541.438293 1383.000000,540.997559 
	C1383.000000,540.997559 1383.017334,541.031250 1383.679565,540.913330 
	C1385.568726,539.042969 1387.457886,537.172546 1389.144897,535.185303 
	C1389.144897,535.185303 1389.303467,535.356506 1389.874512,535.241821 
	C1390.228760,534.813049 1390.582886,534.384277 1391.400513,533.762939 
	C1391.590820,533.494812 1391.781006,533.226624 1392.548218,532.814392 
	C1393.017334,532.198975 1393.486450,531.583618 1393.999146,531.001648 
	C1393.999146,531.001648 1393.968628,530.956787 1394.529175,530.815247 
	C1394.824341,530.337036 1395.119629,529.858765 1394.985718,529.053223 
	C1395.130249,529.159302 1395.274780,529.265320 1395.878174,529.242249 
M1246.676514,153.200241 
	C1244.080200,153.238541 1241.480957,153.213181 1238.888062,153.329285 
	C1234.446655,153.528137 1230.012207,153.919327 1225.569580,154.037643 
	C1220.750122,154.166000 1215.924316,154.035919 1211.102295,154.099976 
	C1209.344849,154.123322 1207.514282,154.783905 1205.846680,154.468613 
	C1191.233154,151.705719 1177.850586,144.033646 1162.611328,143.559189 
	C1161.813110,143.534317 1160.458862,141.249527 1160.426514,139.989609 
	C1160.211304,131.594406 1160.369507,123.190460 1160.236084,114.792068 
	C1160.148315,109.262367 1157.734985,106.228271 1152.853638,104.946426 
	C1146.303711,103.226387 1142.367920,104.383072 1139.519409,109.519241 
	C1138.015015,112.231827 1136.859741,115.316795 1136.350830,118.367760 
	C1135.046021,126.188316 1134.190918,134.083923 1133.131348,142.136520 
	C1130.417358,142.476685 1128.129150,142.795242 1125.833374,143.044998 
	C1120.082153,143.670731 1114.273438,143.954880 1108.587036,144.946060 
	C1100.331787,146.385040 1092.235352,149.029205 1083.940308,149.873718 
	C1073.570923,150.929459 1063.051880,151.157013 1052.630859,150.790070 
	C1047.597290,150.612823 1042.345215,150.979233 1037.310181,147.945480 
	C1033.959106,145.926361 1029.013550,146.511124 1024.766724,146.075363 
	C1024.233887,146.020691 1023.627747,146.879684 1023.024353,147.266663 
	C1022.091431,147.864899 1021.198425,148.684738 1020.170532,148.945251 
	C1017.214539,149.694443 1014.199402,150.210327 1010.993408,150.861359 
	C1015.078430,156.962585 1027.431396,160.669312 1035.880859,159.399689 
	C1039.944824,158.789017 1044.728638,157.096832 1047.758667,162.276978 
	C1050.958130,167.746704 1054.704224,172.908157 1057.718018,178.471634 
	C1060.450073,183.514893 1064.346802,184.179047 1071.391357,184.272644 
	C1079.272461,184.377350 1087.270508,181.365295 1095.080078,185.511642 
	C1099.741699,187.986618 1104.866577,189.588791 1110.366211,191.819794 
	C1109.437378,203.774826 1108.328003,215.858902 1107.664551,227.967407 
	C1107.473267,231.457016 1104.664429,235.873764 1109.913208,238.436478 
	C1110.340454,238.645126 1110.007690,240.259293 1110.171875,241.195160 
	C1110.389282,242.433853 1110.761108,243.644760 1111.043701,244.872864 
	C1111.566162,247.142609 1112.668701,249.468597 1112.474365,251.678406 
	C1111.861572,258.648254 1110.728760,265.543823 1113.869751,272.281219 
	C1114.524048,273.684814 1114.489014,275.495758 1114.465576,277.114532 
	C1114.359863,284.419495 1114.266968,291.728363 1113.940063,299.025543 
	C1113.396240,311.167816 1112.494873,323.296204 1112.091553,335.441956 
	C1111.788940,344.558777 1112.031738,353.693726 1112.031738,362.749634 
	C1102.849854,363.990082 1095.074951,364.812775 1087.385254,366.131531 
	C1075.159668,368.228088 1075.182129,368.368011 1074.973145,380.528442 
	C1074.953369,381.677185 1074.970459,382.826569 1074.970459,384.163330 
	C1120.065430,384.163330 1164.917847,384.163330 1209.958130,384.163330 
	C1209.958130,381.462921 1209.783203,379.122375 1210.000366,376.818756 
	C1210.304932,373.587555 1209.272827,372.236450 1205.822632,371.579803 
	C1197.370239,369.971039 1189.068481,367.585022 1180.643311,365.810608 
	C1177.122314,365.069031 1175.842285,363.685608 1175.844238,359.862488 
	C1175.850586,346.871399 1175.289429,333.881012 1175.104492,320.888092 
	C1175.058350,317.648834 1173.055908,313.541840 1178.172729,311.887360 
	C1178.611816,311.745361 1178.840454,310.421387 1178.873169,309.634308 
	C1179.318481,298.927734 1178.732666,288.288666 1180.604492,277.502686 
	C1182.286621,267.809418 1180.880249,257.583710 1180.871582,247.592819 
	C1180.856079,229.807480 1180.867310,212.022110 1180.867310,193.731354 
	C1186.141724,191.996429 1192.134888,189.101028 1198.418457,188.174057 
	C1207.925171,186.771591 1217.649170,186.902573 1227.247314,186.018600 
	C1229.850098,185.778900 1233.387695,184.974579 1234.672485,183.147156 
	C1238.543579,177.641693 1241.921021,171.683823 1244.645752,165.528275 
	C1245.777344,162.971832 1246.879883,162.400620 1249.219482,162.219223 
	C1256.761353,161.634430 1264.373657,161.349518 1271.788940,160.009033 
	C1275.266968,159.380280 1278.356079,156.599655 1281.621460,154.794235 
	C1281.495972,154.082916 1281.370483,153.371582 1281.245117,152.660263 
	C1279.045288,152.047653 1276.874268,151.272156 1274.636230,150.877182 
	C1273.029053,150.593552 1270.268188,151.434891 1269.850830,150.714615 
	C1267.448242,146.568008 1263.931519,148.141174 1260.961060,148.846756 
	C1256.377563,149.935516 1251.964844,151.743149 1246.676514,153.200241 
M182.790115,175.664780 
	C182.790115,173.891052 182.790115,172.117340 182.790115,170.245590 
	C169.563004,170.245590 156.976837,170.245590 144.279297,170.245590 
	C144.279297,226.221268 144.279297,281.949310 144.279297,337.746674 
	C157.147293,337.746674 169.731506,337.746674 182.938812,337.746674 
	C182.938812,314.795807 182.938812,292.091553 182.938812,269.459656 
	C208.633484,269.459656 233.701035,269.459656 259.126526,269.459656 
	C259.126526,292.402802 259.126526,315.005188 259.126526,337.725250 
	C272.218109,337.725250 284.946594,337.725250 297.689270,337.725250 
	C297.689270,281.716797 297.689270,225.988480 297.689270,170.346649 
	C284.642883,170.346649 271.912689,170.346649 258.776062,170.346649 
	C258.776062,192.451202 258.776062,214.210663 258.776062,235.876633 
	C233.281921,235.876633 208.203506,235.876633 182.790726,235.876633 
	C182.790726,215.905533 182.790726,196.266052 182.790115,175.664780 
M929.211914,323.499969 
	C929.211914,343.620758 929.211914,363.741547 929.211914,384.158356 
	C941.849304,384.158356 954.084839,384.158356 966.968628,384.158356 
	C966.968628,364.413879 966.968628,344.949982 966.968628,324.854950 
	C989.465942,347.386841 1029.977417,342.895844 1050.625610,322.518707 
	C1074.837524,298.624695 1076.768066,254.690094 1054.555298,228.554733 
	C1043.561157,215.619186 1029.142700,208.828979 1012.432373,207.314087 
	C994.737488,205.709900 978.374084,209.039612 964.830566,223.810959 
	C964.830566,218.019974 964.830566,213.506622 964.830566,209.259583 
	C952.656799,209.259583 941.084412,209.259583 929.212036,209.259583 
	C929.212036,247.259048 929.212036,284.879486 929.211914,323.499969 
M1408.455566,362.001892 
	C1411.855591,362.001892 1415.255493,362.001892 1418.747803,362.001892 
	C1418.593994,361.131104 1418.600220,360.794403 1418.475830,360.515991 
	C1394.161865,306.085052 1369.818359,251.667236 1345.578491,197.203339 
	C1344.430298,194.623535 1343.027466,193.889740 1340.324341,193.933884 
	C1330.331055,194.097046 1320.329346,194.163818 1310.339966,193.908539 
	C1306.789429,193.817810 1305.232666,195.004196 1303.796265,198.256241 
	C1286.619995,237.144669 1269.241699,275.943939 1251.927979,314.771667 
	C1244.974121,330.366241 1238.048584,345.973358 1230.921143,361.999786 
	C1243.738892,361.999786 1256.034668,362.090210 1268.324585,361.860016 
	C1269.555298,361.836975 1271.293457,360.103149 1271.873657,358.763794 
	C1276.030273,349.166748 1280.013550,339.492462 1283.896851,329.780762 
	C1284.913696,327.238190 1285.992065,325.888550 1289.155151,325.910889 
	C1312.811157,326.078186 1336.468994,326.063507 1360.125244,325.920990 
	C1363.027222,325.903503 1364.099243,327.022552 1365.078369,329.479248 
	C1368.828857,338.889221 1373.047974,348.119080 1376.571167,357.609619 
	C1377.945679,361.312103 1379.833862,362.208588 1383.480103,362.085815 
	C1391.467773,361.816986 1399.470825,362.002106 1408.455566,362.001892 
M859.222290,211.162277 
	C844.479187,206.371719 829.503906,205.565979 814.393311,208.951065 
	C761.070801,220.896469 750.971130,276.028870 771.522644,308.834564 
	C792.776550,342.761353 847.186890,350.769226 879.738098,324.381073 
	C899.526672,308.339172 906.277161,286.845734 902.554565,262.347656 
	C898.725098,237.146805 883.673096,220.453690 859.222290,211.162277 
M360.400238,331.110474 
	C391.626465,346.848572 437.223694,340.762543 452.202789,318.616638 
	C445.762085,311.666412 439.274078,304.665192 432.781189,297.658661 
	C431.252350,298.901489 430.253082,299.786377 429.181976,300.573608 
	C413.803864,311.876343 397.185638,312.981262 380.133118,305.480103 
	C371.245056,301.570374 365.565399,294.280396 363.534271,283.864960 
	C396.333282,283.864960 428.605042,283.864960 460.883087,283.864960 
	C461.124847,281.289093 461.419861,279.140015 461.514618,276.982117 
	C462.438446,255.941467 456.559265,237.379517 440.392365,223.239182 
	C424.068115,208.961258 404.600769,205.031143 383.483063,207.834320 
	C354.623108,211.665222 332.210785,232.166275 327.021881,259.464447 
	C321.258453,289.785248 333.288177,316.063629 360.400238,331.110474 
M744.390686,228.138687 
	C740.720459,224.784027 737.419434,220.868088 733.317261,218.170227 
	C713.772278,205.316132 692.285828,204.070831 670.536682,210.156418 
	C615.403320,225.583191 609.804993,287.796692 638.480774,317.538452 
	C659.365051,339.199036 685.471680,343.797852 713.888794,337.258423 
	C730.760132,333.375946 743.544983,323.657593 751.477905,307.335144 
	C741.745728,302.030334 732.223328,296.839844 722.746460,291.674194 
	C710.696899,310.162872 697.449585,310.586853 685.898193,308.473572 
	C669.845581,305.536804 660.895630,293.670441 659.576660,274.953796 
	C657.795593,249.679642 679.868835,231.717163 703.639771,239.093948 
	C712.197510,241.749664 717.917542,247.826065 722.633118,255.310394 
	C732.358093,250.071014 741.817993,244.974457 751.775513,239.609787 
	C749.274048,235.654556 747.067444,232.165604 744.390686,228.138687 
M487.206512,263.499969 
	C487.206512,288.256989 487.206512,313.014038 487.206512,337.596985 
	C500.136047,337.596985 512.359131,337.596985 524.516357,337.596985 
	C524.516357,278.265808 524.516357,219.346069 524.516357,160.307388 
	C512.020996,160.307388 499.800323,160.307388 487.206573,160.307388 
	C487.206573,194.580887 487.206573,228.540421 487.206512,263.499969 
M559.206604,259.499969 
	C559.206604,285.567047 559.206604,311.634094 559.206604,337.647614 
	C572.067566,337.647614 584.280518,337.647614 596.465149,337.647614 
	C596.465149,294.598145 596.465149,251.909912 596.465149,209.257874 
	C583.930054,209.257874 571.722595,209.257874 559.206665,209.257874 
	C559.206665,225.925827 559.206665,242.212891 559.206604,259.499969 
M1434.920044,233.152954 
	C1434.682251,234.579163 1434.238159,236.005157 1434.236938,237.431610 
	C1434.199585,277.549011 1434.204346,317.666473 1434.218872,357.783905 
	C1434.219360,359.067017 1434.395508,360.350067 1434.493652,361.686768 
	C1447.000122,361.686768 1459.213135,361.686768 1471.494629,361.686768 
	C1471.494629,318.671448 1471.494629,275.979034 1471.494629,233.391006 
	C1470.894165,233.169342 1470.590454,232.959656 1470.286255,232.958954 
	C1458.802124,232.932068 1447.317871,232.924423 1434.920044,233.152954 
M1471.483032,206.907578 
	C1481.718384,192.418930 1474.779175,176.088120 1457.227661,173.488708 
	C1454.942383,173.150299 1452.569214,173.084045 1450.264282,173.257767 
	C1439.479248,174.070602 1430.913818,181.697891 1429.952148,191.190262 
	C1428.870605,201.864304 1434.639282,210.939972 1444.770630,213.658447 
	C1454.501831,216.269592 1463.584717,215.084106 1471.483032,206.907578 
M558.540466,181.820206 
	C562.412292,187.103516 567.790039,189.731201 574.131531,190.652557 
	C587.257507,192.559708 599.176880,184.852158 600.968140,173.302597 
	C602.886902,160.931183 595.286011,151.107544 581.993469,149.435547 
	C572.561646,148.249161 563.911316,150.289062 558.244019,158.704605 
	C553.326477,166.006775 553.540710,173.688965 558.540466,181.820206 
z"/>
<path fill="#04B4F5" opacity="1.000000" stroke="none" 
	d="
M59.630367,275.274597 
	C33.403877,246.892517 11.594792,215.983948 3.607016,177.189209 
	C2.871403,173.616486 2.311925,170.007477 1.335329,166.207672 
	C1.000000,158.645752 1.000000,151.291504 1.338223,143.277344 
	C3.079723,136.464111 4.102035,130.193649 5.952386,124.177856 
	C13.862008,98.462379 30.369633,79.026413 51.557678,63.258389 
	C79.945656,42.132198 112.346848,29.884098 146.227951,20.951273 
	C184.853195,10.767647 224.279388,5.926860 264.426941,3.069354 
	C266.574799,3.030694 268.297516,2.905641 270.404877,2.806520 
	C271.809143,2.735921 272.828766,2.639389 274.302307,2.690575 
	C280.504181,2.225528 286.252106,1.612764 292.000000,1.000000 
	C295.030609,1.000000 298.061188,1.000000 301.802307,1.339027 
	C318.811768,1.792393 335.110718,1.916431 351.409882,1.977672 
	C351.938690,1.979659 352.469910,1.340360 353.000000,1.000002 
	C358.688049,1.000000 364.376068,1.000000 370.532043,1.000000 
	C375.328400,1.593166 379.642181,2.549843 383.987396,2.724107 
	C435.964020,4.808615 487.529388,10.760085 538.893799,18.767687 
	C610.999023,30.008711 681.961121,46.264118 752.026184,66.610695 
	C833.958496,90.403427 913.838013,119.773575 991.884155,154.186783 
	C993.232605,154.781403 994.547668,155.451614 995.867065,157.019577 
	C993.848206,157.019577 991.829285,157.019592 989.810425,157.019562 
	C952.153931,157.018982 914.482849,156.402802 876.847656,157.297089 
	C859.937317,157.698898 844.556763,154.338531 828.862427,148.493820 
	C753.793823,120.537621 677.203613,97.365906 599.137390,79.436577 
	C559.435242,70.318260 519.388367,62.517658 479.254913,55.509171 
	C433.986298,47.603928 388.299164,42.608513 342.393005,39.784554 
	C307.608795,37.644772 272.826752,36.574135 238.030624,39.057320 
	C190.224655,42.468933 142.955246,48.821091 98.203552,67.266518 
	C76.130577,76.364395 55.813480,88.305962 40.338615,107.057426 
	C24.361046,126.418045 18.142498,148.764008 20.481169,173.646759 
	C23.364050,204.319778 36.496738,231.081451 52.116295,256.905212 
	C55.030842,261.723816 57.971119,266.526886 61.020977,271.934875 
	C61.439583,272.675903 61.736744,272.819183 62.033901,272.962463 
	C62.033901,272.962463 62.005768,272.998779 61.955956,273.344788 
	C61.147552,274.218689 60.388958,274.746643 59.630367,275.274597 
z"/>
<path fill="#FCFFFF" opacity="1.000000" stroke="none" 
	d="
M264.001801,2.982963 
	C224.279388,5.926860 184.853195,10.767647 146.227951,20.951273 
	C112.346848,29.884098 79.945656,42.132198 51.557678,63.258389 
	C30.369633,79.026413 13.862008,98.462379 5.952386,124.177856 
	C4.102035,130.193649 3.079723,136.464111 1.338223,142.808716 
	C1.000000,95.716606 1.000000,48.433220 1.000000,1.000000 
	C91.687508,1.000000 182.375092,1.000000 273.524780,1.259109 
	C273.940704,1.859764 273.894531,2.201310 273.848358,2.542857 
	C272.828766,2.639389 271.809143,2.735921 270.125854,2.581096 
	C267.642029,2.547481 265.821899,2.765222 264.001801,2.982963 
z"/>
<path fill="#4F4F4F" opacity="1.000000" stroke="none" 
	d="
M1586.000000,264.531342 
	C1580.697266,265.221802 1575.302002,264.893860 1570.109009,265.767914 
	C1554.162476,268.451904 1544.612183,278.860809 1544.126099,295.140137 
	C1543.519775,315.447266 1543.858154,335.782593 1543.790283,356.105743 
	C1543.784302,357.897736 1543.789551,359.689758 1543.789551,361.736237 
	C1531.105347,361.736237 1518.886841,361.736237 1506.439453,361.736237 
	C1506.439453,318.877167 1506.439453,276.287598 1506.439453,233.288025 
	C1518.161987,233.288025 1529.847534,233.288025 1541.954224,233.288025 
	C1541.954224,238.376633 1541.954224,243.447266 1541.954224,249.679001 
	C1553.726074,235.625580 1568.598145,231.332825 1585.545410,230.997040 
	C1586.000000,242.020889 1586.000000,253.041794 1586.000000,264.531342 
z"/>
<path fill="#4EDDFF" opacity="1.000000" stroke="none" 
	d="
M352.531342,1.000002 
	C352.469910,1.340360 351.938690,1.979659 351.409882,1.977672 
	C335.110718,1.916431 318.811768,1.792393 302.256409,1.339027 
	C318.687561,1.000000 335.375122,1.000000 352.531342,1.000002 
z"/>
<path fill="#AFF1FB" opacity="1.000000" stroke="none" 
	d="
M274.302307,2.690574 
	C273.894531,2.201310 273.940704,1.859764 273.993469,1.259109 
	C279.688049,1.000000 285.376068,1.000000 291.532043,1.000000 
	C286.252106,1.612764 280.504181,2.225528 274.302307,2.690574 
z"/>
<path fill="#FE6601" opacity="1.000000" stroke="none" 
	d="
M349.613434,385.197266 
	C349.613434,385.197266 349.275787,385.153748 349.097687,384.695374 
	C346.101868,382.274628 343.418396,380.070374 340.431519,378.412811 
	C336.913391,376.460419 333.132446,374.981659 329.465454,373.297546 
	C329.465454,373.297546 329.182343,373.254608 329.051727,372.793945 
	C327.695129,371.173523 326.469147,370.013763 324.590515,368.236572 
	C326.137360,368.236572 326.847046,368.032043 327.353149,368.266602 
	C338.439178,373.405273 349.474609,378.653534 360.577026,383.756195 
	C376.651215,391.143860 392.655548,398.700653 408.902985,405.689392 
	C425.404449,412.787476 442.100006,419.449249 458.829407,425.998474 
	C476.721436,433.002838 494.705750,439.778900 512.735046,446.423248 
	C532.688843,453.776855 552.687744,461.015778 572.764221,468.026123 
	C588.072876,473.371582 603.510376,478.352875 618.934692,483.360291 
	C628.127747,486.344757 637.374207,489.175873 646.653687,491.880463 
	C659.903076,495.742188 673.203247,499.430084 686.484863,503.181213 
	C692.159058,504.783783 697.814148,506.464630 703.525879,507.921906 
	C712.911255,510.316528 722.344910,512.521484 731.741150,514.874390 
	C740.981506,517.188293 750.172058,519.707092 759.438416,521.908997 
	C766.438477,523.572327 773.538391,524.810364 780.567322,526.358337 
	C791.825867,528.837952 803.032410,531.561279 814.315552,533.920044 
	C830.254333,537.252197 846.232422,540.399597 862.216125,543.510925 
	C867.395813,544.519226 872.646240,545.163330 877.863525,545.978943 
	C887.007507,547.408447 896.158447,548.795654 905.292114,550.288208 
	C912.382141,551.446838 919.437500,552.819641 926.532166,553.947021 
	C932.730164,554.931946 938.957764,555.734192 945.178894,556.568237 
	C953.846191,557.730164 962.513916,558.893921 971.196716,559.928833 
	C972.419861,560.074646 973.729309,559.496460 974.998779,559.253357 
	C975.439270,559.242981 975.879822,559.232605 976.752502,559.675049 
	C977.751770,560.414307 978.297363,560.891541 978.889099,560.957947 
	C986.065491,561.762268 993.233398,562.769775 1000.434631,563.187561 
	C1006.933472,563.564636 1013.470825,563.279480 1019.991150,563.286377 
	C1020.431458,563.270020 1020.871765,563.253662 1021.758118,563.680176 
	C1028.055298,564.736755 1033.897217,565.721924 1039.760010,565.868713 
	C1046.830322,566.045837 1053.918335,565.511475 1060.998779,565.285034 
	C1061.432373,565.248901 1061.865845,565.212769 1062.754517,565.617432 
	C1063.945679,566.354553 1064.680786,566.906677 1065.417969,566.909363 
	C1080.232056,566.963501 1095.046631,566.987976 1109.860107,566.888367 
	C1110.932373,566.881165 1111.997925,565.878296 1113.066528,565.338379 
	C1113.499023,565.283203 1113.931519,565.228088 1115.019897,565.474976 
	C1127.460449,565.490906 1139.248291,565.291870 1151.028564,564.881409 
	C1156.819702,564.679688 1162.631714,564.356201 1168.373535,563.615845 
	C1181.810791,561.883179 1195.223755,559.948303 1208.622070,557.932556 
	C1216.764893,556.707520 1224.926880,555.473572 1232.959961,553.698364 
	C1239.936401,552.156799 1246.766357,549.925171 1253.619751,547.860840 
	C1262.708496,545.123108 1272.017822,542.883301 1280.756958,539.277588 
	C1291.739868,534.746094 1302.265015,529.095825 1312.918091,523.788635 
	C1314.079224,523.210266 1314.781250,521.710327 1315.696167,520.637878 
	C1315.696167,520.637878 1315.995117,521.000000 1316.207031,520.910828 
	C1317.953979,519.570740 1319.488770,518.319885 1321.023682,517.068970 
	C1321.023682,517.068970 1321.215576,516.811523 1321.754028,516.836670 
	C1324.910278,515.201660 1327.796265,513.847778 1330.100830,511.830017 
	C1342.419678,501.044373 1352.743652,488.975891 1358.339722,473.028076 
	C1362.159180,462.143768 1362.526367,451.193115 1361.771606,440.164520 
	C1361.239014,432.383759 1359.827759,424.364288 1357.082397,417.104218 
	C1353.024170,406.372528 1347.412109,396.230316 1342.526245,385.806732 
	C1342.023804,384.734589 1341.962158,383.455719 1341.627441,381.968170 
	C1360.953003,381.968170 1379.756348,381.853210 1398.553101,382.151764 
	C1400.368042,382.180573 1402.865723,384.397614 1403.822388,386.235870 
	C1412.431641,402.778900 1419.509766,419.818848 1422.517090,438.484375 
	C1424.931030,453.467133 1424.845703,468.126831 1420.947510,482.758423 
	C1419.478638,488.272034 1417.831421,493.738098 1416.265503,499.225830 
	C1416.265503,499.225830 1416.197144,499.236633 1415.870361,499.206970 
	C1413.790771,502.873260 1412.037842,506.569214 1410.284912,510.265167 
	C1410.284912,510.265167 1410.067505,510.079071 1409.832886,510.197327 
	C1408.367310,512.491150 1407.136353,514.666687 1405.905273,516.842224 
	C1405.905273,516.842224 1405.934448,516.933716 1405.662354,517.033813 
	C1405.112549,517.355774 1404.982300,517.644348 1404.999756,517.999512 
	C1404.999756,517.999512 1405.000000,518.000000 1404.638550,518.030396 
	C1403.687988,519.167236 1403.098755,520.273560 1402.509644,521.379944 
	C1402.509644,521.379944 1402.415894,521.340271 1402.067993,521.338684 
	C1399.983643,523.687134 1398.247192,526.037170 1396.510742,528.387268 
	C1396.510742,528.387268 1396.421631,528.387390 1396.115234,528.386719 
	C1395.678955,528.714417 1395.549072,529.042847 1395.419312,529.371277 
	C1395.274780,529.265320 1395.130249,529.159302 1394.881104,529.208313 
	C1394.507080,529.894531 1394.237793,530.425659 1393.968628,530.956787 
	C1393.968628,530.956787 1393.999146,531.001648 1393.656250,531.010010 
	C1392.866089,531.665100 1392.418701,532.311768 1391.971313,532.958496 
	C1391.781006,533.226624 1391.590820,533.494812 1390.853149,533.879272 
	C1389.971680,534.449280 1389.637573,534.902893 1389.303467,535.356506 
	C1389.303467,535.356506 1389.144897,535.185303 1388.887207,535.243652 
	C1386.758789,537.211731 1384.888062,539.121521 1383.017334,541.031250 
	C1383.017334,541.031250 1383.000000,540.997559 1382.689697,541.011108 
	C1382.033203,541.481201 1381.687012,541.937744 1381.340820,542.394287 
	C1381.340820,542.394287 1381.030396,542.126465 1380.832764,542.162903 
	C1379.754883,543.128784 1378.874634,544.058289 1377.994263,544.987793 
	C1377.994263,544.987732 1378.000000,545.000000 1377.635742,545.003540 
	C1373.836426,547.651978 1370.401367,550.296875 1366.966187,552.941772 
	C1366.966187,552.941772 1366.793213,553.191711 1366.260010,553.164307 
	C1363.473145,554.747498 1361.219482,556.358032 1358.965698,557.968628 
	C1358.965698,557.968567 1358.790161,558.218018 1358.251465,558.182983 
	C1355.622192,559.117432 1353.529663,560.082397 1351.441528,561.057312 
	C1340.802246,566.024353 1330.363892,571.497009 1319.469727,575.821655 
	C1308.471680,580.187683 1297.095337,583.660583 1285.746704,587.065002 
	C1276.785034,589.753479 1267.662354,591.963257 1258.521484,593.978638 
	C1250.820190,595.676697 1242.978027,596.728882 1235.232910,598.243774 
	C1234.353027,598.415894 1233.697021,599.731384 1232.937134,600.516724 
	C1232.514648,600.636658 1232.092163,600.756653 1231.029907,600.597534 
	C1228.571411,600.238586 1226.720459,599.900208 1224.939209,600.121582 
	C1214.784668,601.383484 1204.661133,602.902893 1194.499268,604.096802 
	C1182.346436,605.524658 1170.192139,607.173828 1157.989502,607.885437 
	C1143.564819,608.726562 1129.088867,608.816833 1114.632812,608.935730 
	C1107.677490,608.992920 1100.718628,608.306702 1093.757690,608.064209 
	C1073.183105,607.347412 1052.606323,606.692200 1032.031616,605.977783 
	C1030.887085,605.938049 1029.759155,605.443298 1028.613770,605.396057 
	C1022.739746,605.153442 1016.862610,604.988159 1010.986511,604.795837 
	C1010.552856,604.811218 1010.119263,604.826538 1009.259644,604.395874 
	C1006.486145,603.313782 1004.174622,602.391479 1001.784790,602.089844 
	C989.875793,600.586548 977.936096,599.325500 966.028625,597.810730 
	C961.125305,597.187012 956.277222,596.132751 951.401245,595.289917 
	C945.083252,594.197876 938.771362,593.066589 932.440979,592.051208 
	C923.195068,590.568176 913.895630,589.385193 904.692322,587.679199 
	C896.048767,586.076965 887.526184,583.832031 878.902283,582.110535 
	C870.996948,580.532410 862.962769,579.565979 855.100708,577.812561 
	C841.657532,574.814392 828.308105,571.397095 814.912842,568.182739 
	C797.337585,563.965332 779.687805,560.036804 762.198120,555.491638 
	C747.207214,551.595825 732.361023,547.125061 717.519287,542.680298 
	C708.720032,540.045105 700.074280,536.901489 691.321350,534.106140 
	C681.418823,530.943604 671.397644,528.136963 661.565186,524.774597 
	C647.878662,520.094238 634.307373,515.074890 620.709106,510.139038 
	C605.493652,504.616119 590.178467,499.338776 575.136841,493.374115 
	C559.996643,487.370361 545.124878,480.686737 530.161987,474.239471 
	C515.621155,467.974060 501.136688,461.577576 486.580902,455.347351 
	C480.711273,452.834991 474.717987,450.611511 468.780975,448.256561 
	C468.780975,448.256561 468.989655,448.095490 468.833130,447.834290 
	C468.350555,447.204956 468.096100,446.694275 467.688080,446.489349 
	C454.192108,439.712433 440.720184,432.885529 427.151642,426.256439 
	C422.495850,423.981781 417.593109,422.212616 412.803162,420.212494 
	C412.803162,420.212494 412.955902,420.083405 412.825989,419.818176 
	C408.802582,417.696472 404.909058,415.839996 401.015533,413.983521 
	C401.015533,413.983521 401.000000,414.000000 400.962402,413.646179 
	C394.443665,409.949005 387.962494,406.605652 381.481323,403.262299 
	C381.481323,403.262299 381.200256,403.243317 381.067688,402.774414 
	C380.808167,402.000153 380.768677,401.540222 380.541656,401.411682 
	C371.363159,396.218658 362.182526,391.028900 352.952454,385.928619 
	C351.996582,385.400452 350.733795,385.427734 349.613434,385.197266 
z"/>
<path fill="#4E4E4E" opacity="1.000000" stroke="none" 
	d="
M1247.078125,153.223053 
	C1251.964844,151.743149 1256.377563,149.935516 1260.961060,148.846756 
	C1263.931519,148.141174 1267.448242,146.568008 1269.850830,150.714615 
	C1270.268188,151.434891 1273.029053,150.593552 1274.636230,150.877182 
	C1276.874268,151.272156 1279.045288,152.047653 1281.245117,152.660263 
	C1281.370483,153.371582 1281.495972,154.082916 1281.621460,154.794235 
	C1278.356079,156.599655 1275.266968,159.380280 1271.788940,160.009033 
	C1264.373657,161.349518 1256.761353,161.634430 1249.219482,162.219223 
	C1246.879883,162.400620 1245.777344,162.971832 1244.645752,165.528275 
	C1241.921021,171.683823 1238.543579,177.641693 1234.672485,183.147156 
	C1233.387695,184.974579 1229.850098,185.778900 1227.247314,186.018600 
	C1217.649170,186.902573 1207.925171,186.771591 1198.418457,188.174057 
	C1192.134888,189.101028 1186.141724,191.996429 1180.867310,193.731354 
	C1180.867310,212.022110 1180.856079,229.807480 1180.871582,247.592819 
	C1180.880249,257.583710 1182.286621,267.809418 1180.604492,277.502686 
	C1178.732666,288.288666 1179.318481,298.927734 1178.873169,309.634308 
	C1178.840454,310.421387 1178.611816,311.745361 1178.172729,311.887360 
	C1173.055908,313.541840 1175.058350,317.648834 1175.104492,320.888092 
	C1175.289429,333.881012 1175.850586,346.871399 1175.844238,359.862488 
	C1175.842285,363.685608 1177.122314,365.069031 1180.643311,365.810608 
	C1189.068481,367.585022 1197.370239,369.971039 1205.822632,371.579803 
	C1209.272827,372.236450 1210.304932,373.587555 1210.000366,376.818756 
	C1209.783203,379.122375 1209.958130,381.462921 1209.958130,384.163330 
	C1164.917847,384.163330 1120.065430,384.163330 1074.970459,384.163330 
	C1074.970459,382.826569 1074.953369,381.677185 1074.973145,380.528442 
	C1075.182129,368.368011 1075.159668,368.228088 1087.385254,366.131531 
	C1095.074951,364.812775 1102.849854,363.990082 1112.031738,362.749634 
	C1112.031738,353.693726 1111.788940,344.558777 1112.091553,335.441956 
	C1112.494873,323.296204 1113.396240,311.167816 1113.940063,299.025543 
	C1114.266968,291.728363 1114.359863,284.419495 1114.465576,277.114532 
	C1114.489014,275.495758 1114.524048,273.684814 1113.869751,272.281219 
	C1110.728760,265.543823 1111.861572,258.648254 1112.474365,251.678406 
	C1112.668701,249.468597 1111.566162,247.142609 1111.043701,244.872864 
	C1110.761108,243.644760 1110.389282,242.433853 1110.171875,241.195160 
	C1110.007690,240.259293 1110.340454,238.645126 1109.913208,238.436478 
	C1104.664429,235.873764 1107.473267,231.457016 1107.664551,227.967407 
	C1108.328003,215.858902 1109.437378,203.774826 1110.366211,191.819794 
	C1104.866577,189.588791 1099.741699,187.986618 1095.080078,185.511642 
	C1087.270508,181.365295 1079.272461,184.377350 1071.391357,184.272644 
	C1064.346802,184.179047 1060.450073,183.514893 1057.718018,178.471634 
	C1054.704224,172.908157 1050.958130,167.746704 1047.758667,162.276978 
	C1044.728638,157.096832 1039.944824,158.789017 1035.880859,159.399689 
	C1027.431396,160.669312 1015.078430,156.962585 1010.993408,150.861359 
	C1014.199402,150.210327 1017.214539,149.694443 1020.170532,148.945251 
	C1021.198425,148.684738 1022.091431,147.864899 1023.024353,147.266663 
	C1023.627747,146.879684 1024.233887,146.020691 1024.766724,146.075363 
	C1029.013550,146.511124 1033.959106,145.926361 1037.310181,147.945480 
	C1042.345215,150.979233 1047.597290,150.612823 1052.630859,150.790070 
	C1063.051880,151.157013 1073.570923,150.929459 1083.940308,149.873718 
	C1092.235352,149.029205 1100.331787,146.385040 1108.587036,144.946060 
	C1114.273438,143.954880 1120.082153,143.670731 1125.833374,143.044998 
	C1128.129150,142.795242 1130.417358,142.476685 1133.131348,142.136520 
	C1134.190918,134.083923 1135.046021,126.188316 1136.350830,118.367760 
	C1136.859741,115.316795 1138.015015,112.231827 1139.519409,109.519241 
	C1142.367920,104.383072 1146.303711,103.226387 1152.853638,104.946426 
	C1157.734985,106.228271 1160.148315,109.262367 1160.236084,114.792068 
	C1160.369507,123.190460 1160.211304,131.594406 1160.426514,139.989609 
	C1160.458862,141.249527 1161.813110,143.534317 1162.611328,143.559189 
	C1177.850586,144.033646 1191.233154,151.705719 1205.846680,154.468613 
	C1207.514282,154.783905 1209.344849,154.123322 1211.102295,154.099976 
	C1215.924316,154.035919 1220.750122,154.166000 1225.569580,154.037643 
	C1230.012207,153.919327 1234.446655,153.528137 1238.888062,153.329285 
	C1241.480957,153.213181 1244.080200,153.238541 1247.078125,153.223053 
z"/>
<path fill="#4E4E4E" opacity="1.000000" stroke="none" 
	d="
M182.790421,176.145691 
	C182.790726,196.266052 182.790726,215.905533 182.790726,235.876633 
	C208.203506,235.876633 233.281921,235.876633 258.776062,235.876633 
	C258.776062,214.210663 258.776062,192.451202 258.776062,170.346649 
	C271.912689,170.346649 284.642883,170.346649 297.689270,170.346649 
	C297.689270,225.988480 297.689270,281.716797 297.689270,337.725250 
	C284.946594,337.725250 272.218109,337.725250 259.126526,337.725250 
	C259.126526,315.005188 259.126526,292.402802 259.126526,269.459656 
	C233.701035,269.459656 208.633484,269.459656 182.938812,269.459656 
	C182.938812,292.091553 182.938812,314.795807 182.938812,337.746674 
	C169.731506,337.746674 157.147293,337.746674 144.279297,337.746674 
	C144.279297,281.949310 144.279297,226.221268 144.279297,170.245590 
	C156.976837,170.245590 169.563004,170.245590 182.790115,170.245590 
	C182.790115,172.117340 182.790115,173.891052 182.790421,176.145691 
z"/>
<path fill="#4F4F4F" opacity="1.000000" stroke="none" 
	d="
M929.211975,322.999939 
	C929.212036,284.879486 929.212036,247.259048 929.212036,209.259583 
	C941.084412,209.259583 952.656799,209.259583 964.830566,209.259583 
	C964.830566,213.506622 964.830566,218.019974 964.830566,223.810959 
	C978.374084,209.039612 994.737488,205.709900 1012.432373,207.314087 
	C1029.142700,208.828979 1043.561157,215.619186 1054.555298,228.554733 
	C1076.768066,254.690094 1074.837524,298.624695 1050.625610,322.518707 
	C1029.977417,342.895844 989.465942,347.386841 966.968628,324.854950 
	C966.968628,344.949982 966.968628,364.413879 966.968628,384.158356 
	C954.084839,384.158356 941.849304,384.158356 929.211914,384.158356 
	C929.211914,363.741547 929.211914,343.620758 929.211975,322.999939 
M1031.550537,266.213989 
	C1031.342285,265.067474 1031.168457,263.913422 1030.920166,262.775635 
	C1028.061157,249.673843 1017.302185,239.532715 1004.691284,238.038147 
	C988.735413,236.147186 976.095886,242.438065 969.877625,255.589539 
	C965.665955,264.497040 965.086548,273.922577 967.193481,283.406616 
	C969.832703,295.287201 976.628723,304.163208 988.509216,307.641235 
	C1000.894714,311.267090 1012.646362,309.559113 1022.244873,299.956970 
	C1031.423340,290.774994 1032.774292,279.259003 1031.550537,266.213989 
z"/>
<path fill="#4E4E4E" opacity="1.000000" stroke="none" 
	d="
M1407.961548,362.001831 
	C1399.470825,362.002106 1391.467773,361.816986 1383.480103,362.085815 
	C1379.833862,362.208588 1377.945679,361.312103 1376.571167,357.609619 
	C1373.047974,348.119080 1368.828857,338.889221 1365.078369,329.479248 
	C1364.099243,327.022552 1363.027222,325.903503 1360.125244,325.920990 
	C1336.468994,326.063507 1312.811157,326.078186 1289.155151,325.910889 
	C1285.992065,325.888550 1284.913696,327.238190 1283.896851,329.780762 
	C1280.013550,339.492462 1276.030273,349.166748 1271.873657,358.763794 
	C1271.293457,360.103149 1269.555298,361.836975 1268.324585,361.860016 
	C1256.034668,362.090210 1243.738892,361.999786 1230.921143,361.999786 
	C1238.048584,345.973358 1244.974121,330.366241 1251.927979,314.771667 
	C1269.241699,275.943939 1286.619995,237.144669 1303.796265,198.256241 
	C1305.232666,195.004196 1306.789429,193.817810 1310.339966,193.908539 
	C1320.329346,194.163818 1330.331055,194.097046 1340.324341,193.933884 
	C1343.027466,193.889740 1344.430298,194.623535 1345.578491,197.203339 
	C1369.818359,251.667236 1394.161865,306.085052 1418.475830,360.515991 
	C1418.600220,360.794403 1418.593994,361.131104 1418.747803,362.001892 
	C1415.255493,362.001892 1411.855591,362.001892 1407.961548,362.001831 
M1313.187378,259.641388 
	C1308.185059,271.813660 1303.182739,283.985931 1298.148804,296.235352 
	C1316.136597,296.235352 1333.461426,296.235352 1351.285400,296.235352 
	C1342.396851,274.788788 1333.727783,253.871567 1324.691772,232.069046 
	C1320.708984,241.636536 1317.107056,250.289337 1313.187378,259.641388 
z"/>
<path fill="#4E4E4E" opacity="1.000000" stroke="none" 
	d="
M859.583801,211.314301 
	C883.673096,220.453690 898.725098,237.146805 902.554565,262.347656 
	C906.277161,286.845734 899.526672,308.339172 879.738098,324.381073 
	C847.186890,350.769226 792.776550,342.761353 771.522644,308.834564 
	C750.971130,276.028870 761.070801,220.896469 814.393311,208.951065 
	C829.503906,205.565979 844.479187,206.371719 859.583801,211.314301 
M861.722961,292.027374 
	C863.021484,285.063995 865.423706,278.094818 865.387451,271.138428 
	C865.313354,256.934265 859.265259,245.377380 845.376892,240.111725 
	C832.088257,235.073395 819.383545,236.890808 808.994629,247.392593 
	C800.503540,255.975891 798.876343,266.838989 799.813293,278.352692 
	C801.070129,293.796478 810.528381,305.043610 825.188843,308.489532 
	C839.765808,311.915833 853.482056,305.904877 861.722961,292.027374 
z"/>
<path fill="#4E4E4E" opacity="1.000000" stroke="none" 
	d="
M360.050842,330.981018 
	C333.288177,316.063629 321.258453,289.785248 327.021881,259.464447 
	C332.210785,232.166275 354.623108,211.665222 383.483063,207.834320 
	C404.600769,205.031143 424.068115,208.961258 440.392365,223.239182 
	C456.559265,237.379517 462.438446,255.941467 461.514618,276.982117 
	C461.419861,279.140015 461.124847,281.289093 460.883087,283.864960 
	C428.605042,283.864960 396.333282,283.864960 363.534271,283.864960 
	C365.565399,294.280396 371.245056,301.570374 380.133118,305.480103 
	C397.185638,312.981262 413.803864,311.876343 429.181976,300.573608 
	C430.253082,299.786377 431.252350,298.901489 432.781189,297.658661 
	C439.274078,304.665192 445.762085,311.666412 452.202789,318.616638 
	C437.223694,340.762543 391.626465,346.848572 360.050842,330.981018 
M421.386810,262.219513 
	C422.942505,262.219513 424.498199,262.219513 426.115265,262.219513 
	C424.567444,245.796173 409.644409,233.986282 392.822845,235.140182 
	C376.394531,236.267090 363.192932,248.326752 363.560730,262.219513 
	C382.503052,262.219513 401.456360,262.219513 421.386810,262.219513 
z"/>
<path fill="#4E4E4E" opacity="1.000000" stroke="none" 
	d="
M744.625793,228.407654 
	C747.067444,232.165604 749.274048,235.654556 751.775513,239.609787 
	C741.817993,244.974457 732.358093,250.071014 722.633118,255.310394 
	C717.917542,247.826065 712.197510,241.749664 703.639771,239.093948 
	C679.868835,231.717163 657.795593,249.679642 659.576660,274.953796 
	C660.895630,293.670441 669.845581,305.536804 685.898193,308.473572 
	C697.449585,310.586853 710.696899,310.162872 722.746460,291.674194 
	C732.223328,296.839844 741.745728,302.030334 751.477905,307.335144 
	C743.544983,323.657593 730.760132,333.375946 713.888794,337.258423 
	C685.471680,343.797852 659.365051,339.199036 638.480774,317.538452 
	C609.804993,287.796692 615.403320,225.583191 670.536682,210.156418 
	C692.285828,204.070831 713.772278,205.316132 733.317261,218.170227 
	C737.419434,220.868088 740.720459,224.784027 744.625793,228.407654 
z"/>
<path fill="#505050" opacity="1.000000" stroke="none" 
	d="
M487.206543,262.999939 
	C487.206573,228.540421 487.206573,194.580887 487.206573,160.307388 
	C499.800323,160.307388 512.020996,160.307388 524.516357,160.307388 
	C524.516357,219.346069 524.516357,278.265808 524.516357,337.596985 
	C512.359131,337.596985 500.136047,337.596985 487.206512,337.596985 
	C487.206512,313.014038 487.206512,288.256989 487.206543,262.999939 
z"/>
<path fill="#505050" opacity="1.000000" stroke="none" 
	d="
M559.206665,258.999939 
	C559.206665,242.212891 559.206665,225.925827 559.206665,209.257874 
	C571.722595,209.257874 583.930054,209.257874 596.465149,209.257874 
	C596.465149,251.909912 596.465149,294.598145 596.465149,337.647614 
	C584.280518,337.647614 572.067566,337.647614 559.206604,337.647614 
	C559.206604,311.634094 559.206604,285.567047 559.206665,258.999939 
z"/>
<path fill="#505050" opacity="1.000000" stroke="none" 
	d="
M1435.376953,233.033569 
	C1447.317871,232.924423 1458.802124,232.932068 1470.286255,232.958954 
	C1470.590454,232.959656 1470.894165,233.169342 1471.494629,233.391006 
	C1471.494629,275.979034 1471.494629,318.671448 1471.494629,361.686768 
	C1459.213135,361.686768 1447.000122,361.686768 1434.493652,361.686768 
	C1434.395508,360.350067 1434.219360,359.067017 1434.218872,357.783905 
	C1434.204346,317.666473 1434.199585,277.549011 1434.236938,237.431610 
	C1434.238159,236.005157 1434.682251,234.579163 1435.376953,233.033569 
z"/>
<path fill="#4E4E4E" opacity="1.000000" stroke="none" 
	d="
M1471.260254,207.197906 
	C1463.584717,215.084106 1454.501831,216.269592 1444.770630,213.658447 
	C1434.639282,210.939972 1428.870605,201.864304 1429.952148,191.190262 
	C1430.913818,181.697891 1439.479248,174.070602 1450.264282,173.257767 
	C1452.569214,173.084045 1454.942383,173.150299 1457.227661,173.488708 
	C1474.779175,176.088120 1481.718384,192.418930 1471.260254,207.197906 
z"/>
<path fill="#4E4E4E" opacity="1.000000" stroke="none" 
	d="
M558.317139,181.524536 
	C553.540710,173.688965 553.326477,166.006775 558.244019,158.704605 
	C563.911316,150.289062 572.561646,148.249161 581.993469,149.435547 
	C595.286011,151.107544 602.886902,160.931183 600.968140,173.302597 
	C599.176880,184.852158 587.257507,192.559708 574.131531,190.652557 
	C567.790039,189.731201 562.412292,187.103516 558.317139,181.524536 
z"/>
<path fill="#EB7A2E" opacity="1.000000" stroke="none" 
	d="
M974.611694,559.112915 
	C973.729309,559.496460 972.419861,560.074646 971.196716,559.928833 
	C962.513916,558.893921 953.846191,557.730164 945.178894,556.568237 
	C938.957764,555.734192 932.730164,554.931946 926.532166,553.947021 
	C919.437500,552.819641 912.382141,551.446838 905.292114,550.288208 
	C896.158447,548.795654 887.007507,547.408447 877.863525,545.978943 
	C872.646240,545.163330 867.395813,544.519226 862.216125,543.510925 
	C846.232422,540.399597 830.254333,537.252197 814.315552,533.920044 
	C803.032410,531.561279 791.825867,528.837952 780.567322,526.358337 
	C773.538391,524.810364 766.438477,523.572327 759.438416,521.908997 
	C750.172058,519.707092 740.981506,517.188293 731.741150,514.874390 
	C722.344910,512.521484 712.911255,510.316528 703.525879,507.921906 
	C697.814148,506.464630 692.159058,504.783783 686.484863,503.181213 
	C673.203247,499.430084 659.903076,495.742188 646.653687,491.880463 
	C637.374207,489.175873 628.127747,486.344757 618.934692,483.360291 
	C603.510376,478.352875 588.072876,473.371582 572.764221,468.026123 
	C552.687744,461.015778 532.688843,453.776855 512.735046,446.423248 
	C494.705750,439.778900 476.721436,433.002838 458.829407,425.998474 
	C442.100006,419.449249 425.404449,412.787476 408.902985,405.689392 
	C392.655548,398.700653 376.651215,391.143860 360.577026,383.756195 
	C349.474609,378.653534 338.439178,373.405273 327.353149,368.266602 
	C326.847046,368.032043 326.137360,368.236572 324.590515,368.236572 
	C326.469147,370.013763 327.695129,371.173523 328.968170,372.677673 
	C321.455231,368.605927 313.895203,364.189850 306.335205,359.773743 
	C306.657959,359.151917 306.980682,358.530060 307.303436,357.908234 
	C312.085205,359.872223 316.918182,361.720917 321.640686,363.818359 
	C362.095673,381.785858 402.227539,400.521057 443.038910,417.636841 
	C513.231934,447.074921 584.882935,472.675568 658.254028,492.984955 
	C707.478455,506.610474 757.050903,519.141785 806.849487,530.486633 
	C862.062378,543.065002 917.995605,552.041321 974.611694,559.112915 
M322.396912,366.692474 
	C322.621246,366.989807 322.845551,367.287109 323.069885,367.584412 
	C323.260956,367.404053 323.452057,367.223694 323.643127,367.043304 
	C323.352905,366.809662 323.062653,366.576019 322.396912,366.692474 
z"/>
<path fill="#EB7A2E" opacity="1.000000" stroke="none" 
	d="
M468.973816,448.537628 
	C474.717987,450.611511 480.711273,452.834991 486.580902,455.347351 
	C501.136688,461.577576 515.621155,467.974060 530.161987,474.239471 
	C545.124878,480.686737 559.996643,487.370361 575.136841,493.374115 
	C590.178467,499.338776 605.493652,504.616119 620.709106,510.139038 
	C634.307373,515.074890 647.878662,520.094238 661.565186,524.774597 
	C671.397644,528.136963 681.418823,530.943604 691.321350,534.106140 
	C700.074280,536.901489 708.720032,540.045105 717.519287,542.680298 
	C732.361023,547.125061 747.207214,551.595825 762.198120,555.491638 
	C779.687805,560.036804 797.337585,563.965332 814.912842,568.182739 
	C828.308105,571.397095 841.657532,574.814392 855.100708,577.812561 
	C862.962769,579.565979 870.996948,580.532410 878.902283,582.110535 
	C887.526184,583.832031 896.048767,586.076965 904.692322,587.679199 
	C913.895630,589.385193 923.195068,590.568176 932.440979,592.051208 
	C938.771362,593.066589 945.083252,594.197876 951.401245,595.289917 
	C956.277222,596.132751 961.125305,597.187012 966.028625,597.810730 
	C977.936096,599.325500 989.875793,600.586548 1001.784790,602.089844 
	C1004.174622,602.391479 1006.486145,603.313782 1008.948853,604.293884 
	C995.866150,602.993713 982.641113,601.540283 969.475220,599.671082 
	C921.174744,592.813904 873.142029,584.273560 825.777710,572.661987 
	C783.464294,562.288574 741.284546,551.147583 699.570068,538.602173 
	C622.036560,515.284485 546.833496,485.682953 473.637024,451.037933 
	C472.133575,450.326294 470.656189,449.559631 468.973816,448.537628 
z"/>
<path fill="#EB7A2E" opacity="1.000000" stroke="none" 
	d="
M1416.550537,499.029297 
	C1417.831421,493.738098 1419.478638,488.272034 1420.947510,482.758423 
	C1424.845703,468.126831 1424.931030,453.467133 1422.517090,438.484375 
	C1419.509766,419.818848 1412.431641,402.778900 1403.822388,386.235870 
	C1402.865723,384.397614 1400.368042,382.180573 1398.553101,382.151764 
	C1379.756348,381.853210 1360.953003,381.968170 1341.627441,381.968170 
	C1341.962158,383.455719 1342.023804,384.734589 1342.526245,385.806732 
	C1347.412109,396.230316 1353.024170,406.372528 1357.082397,417.104218 
	C1359.827759,424.364288 1361.239014,432.383759 1361.771606,440.164520 
	C1362.526367,451.193115 1362.159180,462.143768 1358.339722,473.028076 
	C1352.743652,488.975891 1342.419678,501.044373 1330.100830,511.830017 
	C1327.796265,513.847778 1324.910278,515.201660 1321.910645,516.801270 
	C1328.590332,510.200958 1336.374390,504.277924 1342.579712,497.007416 
	C1362.067505,474.174683 1365.147095,447.841980 1356.014893,420.075867 
	C1352.093384,408.152344 1345.918579,396.968536 1340.736816,385.462463 
	C1340.014526,383.858490 1339.116333,382.333710 1337.943726,380.091553 
	C1347.876587,380.091553 1356.996948,380.092865 1366.117432,380.091217 
	C1376.948120,380.089264 1387.781616,379.961029 1398.606689,380.205505 
	C1400.371948,380.245361 1402.916870,381.471375 1403.723755,382.917664 
	C1416.865356,406.476135 1426.114258,431.248260 1425.863281,458.712585 
	C1425.735352,472.699341 1422.861084,486.138184 1416.550537,499.029297 
z"/>
<path fill="#EB7A2E" opacity="1.000000" stroke="none" 
	d="
M1011.379883,604.926025 
	C1016.862610,604.988159 1022.739746,605.153442 1028.613770,605.396057 
	C1029.759155,605.443298 1030.887085,605.938049 1032.031616,605.977783 
	C1052.606323,606.692200 1073.183105,607.347412 1093.757690,608.064209 
	C1100.718628,608.306702 1107.677490,608.992920 1114.632812,608.935730 
	C1129.088867,608.816833 1143.564819,608.726562 1157.989502,607.885437 
	C1170.192139,607.173828 1182.346436,605.524658 1194.499268,604.096802 
	C1204.661133,602.902893 1214.784668,601.383484 1224.939209,600.121582 
	C1226.720459,599.900208 1228.571411,600.238586 1230.697998,600.568359 
	C1212.721680,603.192566 1194.492310,606.180359 1176.142700,607.824768 
	C1123.457397,612.546082 1070.795654,611.103577 1018.205933,605.890381 
	C1016.055237,605.677185 1013.917175,605.337219 1011.379883,604.926025 
z"/>
<path fill="#EB7A2E" opacity="1.000000" stroke="none" 
	d="
M1315.347168,520.700745 
	C1314.781250,521.710327 1314.079224,523.210266 1312.918091,523.788635 
	C1302.265015,529.095825 1291.739868,534.746094 1280.756958,539.277588 
	C1272.017822,542.883301 1262.708496,545.123108 1253.619751,547.860840 
	C1246.766357,549.925171 1239.936401,552.156799 1232.959961,553.698364 
	C1224.926880,555.473572 1216.764893,556.707520 1208.622070,557.932556 
	C1195.223755,559.948303 1181.810791,561.883179 1168.373535,563.615845 
	C1162.631714,564.356201 1156.819702,564.679688 1151.028564,564.881409 
	C1139.248291,565.291870 1127.460449,565.490906 1115.343750,565.534607 
	C1131.427124,564.189331 1147.877930,563.460510 1164.251099,561.911011 
	C1207.587158,557.810120 1250.280762,550.588684 1290.582886,533.177551 
	C1298.947876,529.563782 1306.871216,524.928223 1315.347168,520.700745 
z"/>
<path fill="#EB7A2E" opacity="1.000000" stroke="none" 
	d="
M1233.332397,600.585022 
	C1233.697021,599.731384 1234.353027,598.415894 1235.232910,598.243774 
	C1242.978027,596.728882 1250.820190,595.676697 1258.521484,593.978638 
	C1267.662354,591.963257 1276.785034,589.753479 1285.746704,587.065002 
	C1297.095337,583.660583 1308.471680,580.187683 1319.469727,575.821655 
	C1330.363892,571.497009 1340.802246,566.024353 1351.441528,561.057312 
	C1353.529663,560.082397 1355.622192,559.117432 1358.101807,558.212402 
	C1344.019531,565.248718 1329.866455,573.007324 1315.006714,579.018738 
	C1288.878906,589.588440 1261.442871,595.769592 1233.332397,600.585022 
z"/>
<path fill="#EB7A2E" opacity="1.000000" stroke="none" 
	d="
M412.981659,420.503052 
	C417.593109,422.212616 422.495850,423.981781 427.151642,426.256439 
	C440.720184,432.885529 454.192108,439.712433 467.688080,446.489349 
	C468.096100,446.694275 468.350555,447.204956 468.742767,447.930267 
	C453.623352,440.912140 438.426788,433.559357 423.260559,426.144501 
	C419.839447,424.471893 416.524170,422.582947 412.981659,420.503052 
z"/>
<path fill="#EB7A2E" opacity="1.000000" stroke="none" 
	d="
M1112.605591,565.223450 
	C1111.997925,565.878296 1110.932373,566.881165 1109.860107,566.888367 
	C1095.046631,566.987976 1080.232056,566.963501 1065.417969,566.909363 
	C1064.680786,566.906677 1063.945679,566.354553 1063.073120,565.694458 
	C1079.339355,565.256592 1095.741943,565.182556 1112.605591,565.223450 
z"/>
<path fill="#EB7A2E" opacity="1.000000" stroke="none" 
	d="
M1019.579041,563.151855 
	C1013.470825,563.279480 1006.933472,563.564636 1000.434631,563.187561 
	C993.233398,562.769775 986.065491,561.762268 978.889099,560.957947 
	C978.297363,560.891541 977.751770,560.414307 977.064087,559.791260 
	C991.017944,560.642151 1005.092407,561.829773 1019.579041,563.151855 
z"/>
<path fill="#EB7A2E" opacity="1.000000" stroke="none" 
	d="
M1060.560547,565.161255 
	C1053.918335,565.511475 1046.830322,566.045837 1039.760010,565.868713 
	C1033.897217,565.721924 1028.055298,564.736755 1022.074829,563.781067 
	C1034.671143,563.971863 1047.396851,564.504700 1060.560547,565.161255 
z"/>
<path fill="#EB7A2E" opacity="1.000000" stroke="none" 
	d="
M349.781799,385.497528 
	C350.733795,385.427734 351.996582,385.400452 352.952454,385.928619 
	C362.182526,391.028900 371.363159,396.218658 380.541656,401.411682 
	C380.768677,401.540222 380.808167,402.000153 380.979462,402.664612 
	C370.665924,397.281708 360.308075,391.539734 349.781799,385.497528 
z"/>
<path fill="#3CB5E2" opacity="1.000000" stroke="none" 
	d="
M59.776115,275.579041 
	C60.388958,274.746643 61.147552,274.218689 61.973213,273.326477 
	C64.971306,276.604401 67.902336,280.246552 70.833366,283.888702 
	C70.434601,284.278778 70.035835,284.668823 69.637062,285.058899 
	C65.566681,283.007538 63.083668,279.034668 59.776115,275.579041 
z"/>
<path fill="#EB7A2E" opacity="1.000000" stroke="none" 
	d="
M381.666626,403.559509 
	C387.962494,406.605652 394.443665,409.949005 400.969788,413.637695 
	C394.627136,410.607605 388.239532,407.232178 381.666626,403.559509 
z"/>
<path fill="#EB7A2E" opacity="1.000000" stroke="none" 
	d="
M329.649017,373.591553 
	C333.132446,374.981659 336.913391,376.460419 340.431519,378.412811 
	C343.418396,380.070374 346.101868,382.274628 348.978973,384.573395 
	C342.636444,381.235077 336.234497,377.560333 329.649017,373.591553 
z"/>
<path fill="#EB7A2E" opacity="1.000000" stroke="none" 
	d="
M401.186432,414.273682 
	C404.909058,415.839996 408.802582,417.696472 412.769470,419.900635 
	C409.014343,418.353516 405.185822,416.458679 401.186432,414.273682 
z"/>
<path fill="#EB7A2E" opacity="1.000000" stroke="none" 
	d="
M1367.310791,552.897217 
	C1370.401367,550.296875 1373.836426,547.651978 1377.629150,545.000122 
	C1374.543091,547.612915 1371.099365,550.232727 1367.310791,552.897217 
z"/>
<path fill="#EB7A2E" opacity="1.000000" stroke="none" 
	d="
M1410.574707,510.101959 
	C1412.037842,506.569214 1413.790771,502.873260 1415.911499,499.210388 
	C1414.474243,502.808563 1412.669312,506.373657 1410.574707,510.101959 
z"/>
<path fill="#EB7A2E" opacity="1.000000" stroke="none" 
	d="
M1396.796631,528.243652 
	C1398.247192,526.037170 1399.983643,523.687134 1402.077637,521.388611 
	C1400.651001,523.660095 1398.866821,525.880005 1396.796631,528.243652 
z"/>
<path fill="#EB7A2E" opacity="1.000000" stroke="none" 
	d="
M1359.315186,557.933716 
	C1361.219482,556.358032 1363.473145,554.747498 1366.111572,553.197205 
	C1364.219116,554.804565 1361.941895,556.351685 1359.315186,557.933716 
z"/>
<path fill="#EB7A2E" opacity="1.000000" stroke="none" 
	d="
M1383.348389,540.972290 
	C1384.888062,539.121521 1386.758789,537.211731 1388.988281,535.302063 
	C1387.457886,537.172546 1385.568726,539.042969 1383.348389,540.972290 
z"/>
<path fill="#EB7A2E" opacity="1.000000" stroke="none" 
	d="
M1406.204468,516.702393 
	C1407.136353,514.666687 1408.367310,512.491150 1409.955078,510.271698 
	C1409.042603,512.339355 1407.773071,514.450989 1406.204468,516.702393 
z"/>
<path fill="#EB7A2E" opacity="1.000000" stroke="none" 
	d="
M1320.691650,517.108887 
	C1319.488770,518.319885 1317.953979,519.570740 1316.056274,520.729980 
	C1317.248779,519.475159 1318.804077,518.312012 1320.691650,517.108887 
z"/>
<path fill="#EB7A2E" opacity="1.000000" stroke="none" 
	d="
M1402.777954,521.234375 
	C1403.098755,520.273560 1403.687988,519.167236 1404.638428,518.030090 
	C1404.348511,519.029175 1403.697388,520.059021 1402.777954,521.234375 
z"/>
<path fill="#EB7A2E" opacity="1.000000" stroke="none" 
	d="
M1378.310425,544.958008 
	C1378.874634,544.058289 1379.754883,543.128784 1380.988892,542.301270 
	C1380.437378,543.244873 1379.531982,544.086548 1378.310425,544.958008 
z"/>
<path fill="#EB7A2E" opacity="1.000000" stroke="none" 
	d="
M1392.259766,532.886475 
	C1392.418701,532.311768 1392.866089,531.665100 1393.634521,530.993286 
	C1393.486450,531.583618 1393.017334,532.198975 1392.259766,532.886475 
z"/>
<path fill="#EB7A2E" opacity="1.000000" stroke="none" 
	d="
M1381.625732,542.334717 
	C1381.687012,541.937744 1382.033203,541.481201 1382.705322,541.022217 
	C1382.657837,541.438293 1382.284180,541.856689 1381.625732,542.334717 
z"/>
<path fill="#EB7A2E" opacity="1.000000" stroke="none" 
	d="
M1389.588989,535.299194 
	C1389.637573,534.902893 1389.971680,534.449280 1390.621338,533.975586 
	C1390.582886,534.384277 1390.228760,534.813049 1389.588989,535.299194 
z"/>
<path fill="#EB7A2E" opacity="1.000000" stroke="none" 
	d="
M1394.248901,530.885986 
	C1394.237793,530.425659 1394.507080,529.894531 1395.095581,529.371948 
	C1395.119629,529.858765 1394.824341,530.337036 1394.248901,530.885986 
z"/>
<path fill="#EB7A2E" opacity="1.000000" stroke="none" 
	d="
M1395.648682,529.306763 
	C1395.549072,529.042847 1395.678955,528.714417 1396.101074,528.428955 
	C1396.343140,528.809937 1396.171509,529.066711 1395.648682,529.306763 
z"/>
<path fill="#3CB5E2" opacity="1.000000" stroke="none" 
	d="
M61.892868,272.779358 
	C61.736744,272.819183 61.439583,272.675903 61.081524,272.282440 
	C61.272362,272.209869 61.516102,272.397858 61.892868,272.779358 
z"/>
<path fill="#EB7A2E" opacity="1.000000" stroke="none" 
	d="
M1405.235107,517.910400 
	C1404.982300,517.644348 1405.112549,517.355774 1405.614502,517.034424 
	C1405.715820,517.230408 1405.593140,517.525818 1405.235107,517.910400 
z"/>
<path fill="#AFF1FB" opacity="1.000000" stroke="none" 
	d="
M264.426941,3.069355 
	C265.821899,2.765222 267.642029,2.547481 269.741150,2.555164 
	C268.297516,2.905641 266.574799,3.030694 264.426941,3.069355 
z"/>
<path fill="#FEFEFE" opacity="1.000000" stroke="none" 
	d="
M1031.637085,266.650635 
	C1032.774292,279.259003 1031.423340,290.774994 1022.244873,299.956970 
	C1012.646362,309.559113 1000.894714,311.267090 988.509216,307.641235 
	C976.628723,304.163208 969.832703,295.287201 967.193481,283.406616 
	C965.086548,273.922577 965.665955,264.497040 969.877625,255.589539 
	C976.095886,242.438065 988.735413,236.147186 1004.691284,238.038147 
	C1017.302185,239.532715 1028.061157,249.673843 1030.920166,262.775635 
	C1031.168457,263.913422 1031.342285,265.067474 1031.637085,266.650635 
z"/>
<path fill="#FBFBFB" opacity="1.000000" stroke="none" 
	d="
M1313.346191,259.291748 
	C1317.107056,250.289337 1320.708984,241.636536 1324.691772,232.069046 
	C1333.727783,253.871567 1342.396851,274.788788 1351.285400,296.235352 
	C1333.461426,296.235352 1316.136597,296.235352 1298.148804,296.235352 
	C1303.182739,283.985931 1308.185059,271.813660 1313.346191,259.291748 
z"/>
<path fill="#FEFEFE" opacity="1.000000" stroke="none" 
	d="
M861.518433,292.342773 
	C853.482056,305.904877 839.765808,311.915833 825.188843,308.489532 
	C810.528381,305.043610 801.070129,293.796478 799.813293,278.352692 
	C798.876343,266.838989 800.503540,255.975891 808.994629,247.392593 
	C819.383545,236.890808 832.088257,235.073395 845.376892,240.111725 
	C859.265259,245.377380 865.313354,256.934265 865.387451,271.138428 
	C865.423706,278.094818 863.021484,285.063995 861.518433,292.342773 
z"/>
<path fill="#FDFDFD" opacity="1.000000" stroke="none" 
	d="
M420.898254,262.219513 
	C401.456360,262.219513 382.503052,262.219513 363.560730,262.219513 
	C363.192932,248.326752 376.394531,236.267090 392.822845,235.140182 
	C409.644409,233.986282 424.567444,245.796173 426.115265,262.219513 
	C424.498199,262.219513 422.942505,262.219513 420.898254,262.219513 
z"/>
<path fill="#FE6601" opacity="1.000000" stroke="none" 
	d="
M322.584656,366.517395 
	C323.062653,366.576019 323.352905,366.809662 323.643127,367.043335 
	C323.452057,367.223694 323.260956,367.404053 323.069885,367.584412 
	C322.845551,367.287109 322.621246,366.989807 322.584656,366.517395 
z"/>
</svg>